<svg xmlns="http://www.w3.org/2000/svg" xmlns:xlink="http://www.w3.org/1999/xlink" width="900" height="400" viewBox="0 0 238.125 105.833"><path d="M.008.006h238.125v105.833H.008z" fill="#02071b"/><g fill="#eee"><g opacity=".06"><g class="B" transform="matrix(.766044 -.642788 .642788 .766044 60.724 -18.216)"><path d="M-111.793 51.521q-1.257-.397-2.051-.298-.761.066-1.224.43-.463.331-.628.86-.165.496-.165.992v3.274q0 1.025-.198 1.687-.198.661-.595 1.124-.364.463-.959.794-.562.298-1.323.595.728.298 1.29.661.595.364.992.827.397.463.595 1.124.198.628.198 1.488v3.241q0 .496.165.992.198.496.661.827.463.331 1.224.397.794.099 2.017-.232v4.366q-2.48.331-4.101.033-1.588-.298-2.547-1.058-.959-.728-1.356-1.885-.364-1.124-.364-2.48v-3.473q0-1.587-.959-2.183-.959-.595-3.109-.562v-4.333q2.381 0 3.208-.893.86-.893.86-2.745V51.62q0-1.224.496-2.216.496-1.025 1.521-1.654 1.025-.628 2.58-.827 1.587-.198 3.77.232z"/><use xlink:href="#B"/><use xlink:href="#C"/><use xlink:href="#D"/><path d="M-58.512 61.506q0-1.72.562-3.208.562-1.488 1.521-2.58.992-1.124 2.315-1.753 1.323-.661 2.844-.661 1.488 0 2.745.628 1.257.628 2.183 1.687V53.37h4.134v16.206h-4.134v-2.249q-.926 1.091-2.183 1.72-1.257.595-2.745.595-1.521 0-2.844-.628-1.323-.661-2.315-1.753-.959-1.091-1.521-2.58-.562-1.488-.562-3.175zm4.134 0q0 .827.298 1.554.298.728.827 1.29.562.529 1.257.86.728.298 1.587.298.827 0 1.554-.298.728-.331 1.257-.86.562-.562.86-1.29.331-.728.331-1.554 0-.827-.331-1.554-.298-.761-.86-1.29-.529-.562-1.257-.86-.728-.331-1.554-.331-.86 0-1.587.331-.695.298-1.257.86-.529.529-.827 1.29-.298.728-.298 1.554z"/><use xlink:href="#C" x="51.761" y="0.195"/><use xlink:href="#D" x="52.089" y="0.13"/><path d="M-6.423 61.636q0-1.72.562-3.208.562-1.488 1.521-2.58.992-1.124 2.315-1.753 1.323-.661 2.844-.661 1.488 0 2.745.628 1.257.628 2.183 1.687V53.5h4.134v16.206H5.748v-2.249q-.926 1.091-2.183 1.72-1.257.595-2.745.595-1.521 0-2.844-.628-1.323-.661-2.315-1.753-.959-1.091-1.521-2.58-.562-1.488-.562-3.175zm4.134 0q0 .827.298 1.554.298.728.827 1.29.562.529 1.257.86.728.298 1.587.298.827 0 1.554-.298.728-.331 1.257-.86.562-.562.86-1.29.331-.728.331-1.554 0-.827-.331-1.554-.298-.761-.86-1.29-.529-.562-1.257-.86-.728-.331-1.554-.331-.86 0-1.587.331-.695.298-1.257.86-.529.529-.827 1.29-.298.728-.298 1.554zM11.867 47.48q2.183-.43 3.737-.232 1.587.198 2.613.827 1.025.628 1.521 1.654.496.992.496 2.216v3.473q0 1.852.827 2.745.86.893 3.241.893v4.333q-2.15-.033-3.109.562-.959.595-.959 2.183v3.473q0 1.356-.397 2.48-.364 1.158-1.323 1.885-.959.761-2.58 1.058-1.587.298-4.068-.033v-4.366q1.224.331 1.984.232.794-.066 1.257-.397.463-.331.628-.827.198-.496.198-.992v-3.241q0-.86.198-1.488.198-.661.595-1.124.397-.463.959-.827.595-.364 1.323-.661-.761-.298-1.356-.595-.562-.331-.959-.794-.364-.463-.562-1.124-.198-.661-.198-1.687V53.83q0-.496-.165-.992-.165-.529-.628-.86-.463-.364-1.257-.43-.794-.099-2.017.298z"/><use xlink:href="#D" x="102.695" y="1.032"/><use xlink:href="#E"/><use xlink:href="#C" x="154.456" y="1.227"/><path d="M-101.084 89.043q-1.257-.397-2.051-.298-.761.066-1.224.43-.463.331-.628.86-.165.496-.165.992v3.274q0 1.025-.198 1.687-.198.661-.595 1.124-.364.463-.959.794-.562.298-1.323.595.728.298 1.29.661.595.364.992.827.397.463.595 1.124.198.628.198 1.488v3.241q0 .496.165.992.198.496.661.827.463.331 1.224.397.794.099 2.017-.232v4.366q-2.48.331-4.101.033-1.588-.298-2.547-1.058-.959-.728-1.356-1.885-.364-1.124-.364-2.48v-3.473q0-1.588-.959-2.183-.959-.595-3.109-.562v-4.333q2.381 0 3.208-.893.86-.893.86-2.745v-3.473q0-1.224.496-2.216.496-1.025 1.521-1.654 1.025-.628 2.58-.827 1.587-.198 3.77.232z"/><use xlink:href="#E" x="-143.745" y="36.294"/><use xlink:href="#C" x="10.71" y="37.521"/><use xlink:href="#F"/><use xlink:href="#E" x="-91.985" y="36.489"/><use xlink:href="#C" x="62.47" y="37.716"/><use xlink:href="#F" x="52.089" y="0.129"/><use xlink:href="#E" x="-39.896" y="36.619"/><use xlink:href="#C" x="114.559" y="37.846"/><path d="M53.372 90.27q-1.257-.397-2.051-.298-.761.066-1.224.43-.463.331-.628.86-.165.496-.165.992v3.274q0 1.025-.198 1.687-.198.661-.595 1.124-.364.463-.959.794-.562.298-1.323.595.728.298 1.29.661.595.364.992.827.397.463.595 1.124.198.628.198 1.488v3.241q0 .496.165.992.198.496.661.827.463.331 1.224.397.794.099 2.017-.232v4.366q-2.48.331-4.101.033-1.587-.298-2.547-1.058-.959-.728-1.356-1.885-.364-1.124-.364-2.48v-3.473q0-1.588-.959-2.183-.959-.595-3.109-.562V97.48q2.381 0 3.208-.893.86-.893.86-2.745v-3.473q0-1.224.496-2.216.496-1.025 1.521-1.654 1.025-.628 2.58-.827 1.587-.198 3.77.232z"/><use xlink:href="#E" x="10.71" y="37.521"/><use xlink:href="#C" x="165.165" y="38.748"/><use xlink:href="#G"/><use xlink:href="#B" x="-18.462" y="-36.584"/><use xlink:href="#H"/><path d="M-78.495 15.133q-1.257-.397-2.051-.298-.761.066-1.224.43-.463.331-.628.86-.165.496-.165.992v3.274q0 1.025-.198 1.687-.198.661-.595 1.124-.364.463-.959.794-.562.298-1.323.595.728.298 1.29.661.595.364.992.827.397.463.595 1.124.198.628.198 1.488v3.241q0 .496.165.992.198.496.661.827.463.331 1.224.397.794.099 2.017-.232v4.366q-2.48.331-4.101.033-1.587-.298-2.547-1.058-.959-.728-1.356-1.885-.364-1.124-.364-2.48V29.42q0-1.587-.959-2.183-.959-.595-3.109-.562v-4.333q2.381 0 3.208-.893.86-.893.86-2.745v-3.473q0-1.224.496-2.216.496-1.025 1.521-1.654 1.025-.628 2.58-.827 1.587-.198 3.77.232z"/><use xlink:href="#E" x="-121.157" y="-37.616"/><use xlink:href="#C" x="33.299" y="-36.389"/><path d="M-26.406 15.262q-1.257-.397-2.051-.298-.761.066-1.224.43-.463.331-.628.86-.165.496-.165.992v3.274q0 1.025-.198 1.687-.198.661-.595 1.124-.364.463-.959.794-.562.298-1.323.595.728.298 1.29.661.595.364.992.827.397.463.595 1.124.198.628.198 1.488v3.241q0 .496.165.992.198.496.661.827.463.331 1.224.397.794.099 2.017-.232v4.366q-2.48.331-4.101.033-1.587-.298-2.547-1.058-.959-.728-1.356-1.885-.364-1.124-.364-2.48V29.55q0-1.587-.959-2.183-.959-.595-3.109-.562v-4.333q2.381 0 3.208-.893.86-.893.86-2.745v-3.473q0-1.224.496-2.216.496-1.025 1.521-1.654 1.025-.628 2.58-.827 1.587-.198 3.77.232z"/><use xlink:href="#E" x="-69.067" y="-37.486"/><use xlink:href="#C" x="85.388" y="-36.259"/><path d="M-108.489-27.853q-1.257-.397-2.051-.298-.761.066-1.224.43-.463.331-.628.86-.165.496-.165.992v3.274q0 1.025-.198 1.687-.198.661-.595 1.124-.364.463-.959.794-.562.298-1.323.595.728.298 1.29.661.595.364.992.827.397.463.595 1.124.198.628.198 1.488v3.241q0 .496.165.992.198.496.661.827.463.331 1.224.397.794.099 2.017-.232v4.366q-2.48.331-4.101.033-1.588-.298-2.547-1.058-.959-.728-1.356-1.885-.364-1.124-.364-2.48v-3.473q0-1.587-.959-2.183-.959-.595-3.109-.562v-4.333q2.381 0 3.208-.893.86-.893.86-2.745v-3.473q0-1.224.496-2.216.496-1.025 1.521-1.654 1.025-.628 2.58-.827 1.588-.198 3.77.232z"/><use xlink:href="#B" x="3.305" y="-79.374"/><path d="M-88.678-32.218q2.183-.43 3.737-.232 1.588.198 2.613.827 1.025.628 1.521 1.654.496.992.496 2.216v3.473q0 1.852.827 2.745.86.893 3.241.893v4.333q-2.15-.033-3.109.562-.959.595-.959 2.183v3.473q0 1.356-.397 2.48-.364 1.158-1.323 1.885-.959.761-2.58 1.058-1.587.298-4.068-.033v-4.366q1.224.331 1.984.232.794-.066 1.257-.397.463-.331.628-.827.198-.496.198-.992v-3.241q0-.86.198-1.488.198-.661.595-1.124.397-.463.959-.827.595-.364 1.323-.661-.761-.298-1.356-.595-.562-.331-.959-.794-.364-.463-.562-1.124-.198-.661-.198-1.687v-3.274q0-.496-.165-.992-.165-.529-.628-.86-.463-.364-1.257-.43-.794-.099-2.017.298z"/><use xlink:href="#G" x="37.331" y="-35.647"/><use xlink:href="#E" x="-135.586" y="-73.457"/><use xlink:href="#I"/><use xlink:href="#D" x="18.657" y="-71.87"/><path d="M-39.855-10.364q0-1.72.562-3.208.562-1.488 1.521-2.58.992-1.124 2.315-1.753 1.323-.661 2.844-.661 1.488 0 2.745.628 1.257.628 2.183 1.687V-18.5h4.134v16.206h-4.134v-2.249q-.926 1.091-2.183 1.72-1.257.595-2.745.595-1.521 0-2.844-.628-1.323-.661-2.315-1.753-.959-1.091-1.521-2.58-.562-1.488-.562-3.175zm4.134 0q0 .827.298 1.554.298.728.827 1.29.562.529 1.257.86.728.298 1.587.298.827 0 1.554-.298.728-.331 1.257-.86.562-.562.86-1.29.331-.728.331-1.554 0-.827-.331-1.554-.298-.761-.86-1.29-.529-.562-1.257-.86-.728-.331-1.554-.331-.86 0-1.587.331-.695.298-1.257.86-.529.529-.827 1.29-.298.728-.298 1.554z"/><use xlink:href="#C" x="70.418" y="-71.675"/><use xlink:href="#F" x="-7.701" y="37.166"/><use xlink:href="#E" x="-99.686" y="73.655"/><use xlink:href="#C" x="54.77" y="74.882"/><use xlink:href="#D" x="54.769" y="74.883"/><path d="M-3.743 136.389q0-1.72.562-3.208.562-1.488 1.521-2.58.992-1.124 2.315-1.753 1.323-.661 2.844-.661 1.488 0 2.745.628 1.257.628 2.183 1.687v-2.249h4.134v16.206H8.428v-2.249q-.926 1.091-2.183 1.72-1.257.595-2.745.595-1.521 0-2.844-.628-1.323-.661-2.315-1.753-.959-1.091-1.521-2.58-.562-1.488-.562-3.175zm4.134 0q0 .827.298 1.554.298.728.827 1.29.562.529 1.257.86.728.298 1.587.298.827 0 1.554-.298.728-.331 1.257-.86.562-.562.86-1.29.331-.728.331-1.554 0-.827-.331-1.554-.298-.761-.86-1.29-.529-.562-1.257-.86-.728-.331-1.554-.331-.86 0-1.587.331-.695.298-1.257.86-.529.529-.827 1.29-.298.728-.298 1.554z"/><use xlink:href="#C" x="106.53" y="75.077"/><use xlink:href="#F" x="96.148" y="37.491"/><use xlink:href="#E" x="4.164" y="73.98"/><use xlink:href="#I" x="139.75" y="147.437"/><use xlink:href="#F" x="146.754" y="38.393"/><use xlink:href="#B" x="209.224" y="76.109"/><use xlink:href="#H" x="227.687" y="112.693"/><use xlink:href="#F" x="65.152" y="74.42"/><use xlink:href="#E" x="-26.832" y="110.91"/><use xlink:href="#C" x="127.623" y="112.136"/><use xlink:href="#F" x="116.913" y="74.615"/><use xlink:href="#E" x="24.928" y="111.105"/><use xlink:href="#C" x="179.383" y="112.332"/><use xlink:href="#F" x="98.632" y="110.216"/><use xlink:href="#E" x="6.647" y="146.705"/><use xlink:href="#C" x="161.103" y="147.932"/><path d="M103.596 91.493q-1.257-.397-2.051-.298-.761.066-1.224.43-.463.331-.628.86-.165.496-.165.992v3.274q0 1.025-.198 1.687-.198.661-.595 1.124-.364.463-.959.794-.562.298-1.323.595.728.298 1.29.661.595.364.992.827.397.463.595 1.124.198.628.198 1.488v3.241q0 .496.165.992.198.496.661.827.463.331 1.224.397.794.099 2.017-.232v4.366q-2.48.331-4.101.033-1.587-.298-2.547-1.058-.959-.728-1.356-1.885-.364-1.124-.364-2.48v-3.473q0-1.588-.959-2.183-.959-.595-3.109-.562v-4.333q2.381 0 3.208-.893.86-.893.86-2.745v-3.473q0-1.224.496-2.216.496-1.025 1.521-1.654 1.025-.628 2.58-.827 1.588-.198 3.77.232z"/><use xlink:href="#B" x="215.389" y="39.971"/><use xlink:href="#H" x="233.852" y="76.555"/></g></g><use xlink:href="#D" x="92.056" y="-8.156"/><path d="M33.544 53.349q0-1.72.562-3.208.562-1.488 1.521-2.58.992-1.124 2.315-1.753 1.323-.661 2.844-.661 1.488 0 2.745.628 1.257.628 2.183 1.687v-2.249h4.134v16.206h-4.134V59.17q-.926 1.091-2.183 1.72-1.257.595-2.745.595-1.521 0-2.844-.628-1.323-.661-2.315-1.753-.959-1.091-1.521-2.58-.562-1.488-.562-3.175zm4.134 0q0 .827.298 1.554.298.728.827 1.29.562.529 1.257.86.728.298 1.587.298.827 0 1.554-.298.728-.331 1.257-.86.562-.562.86-1.29.331-.728.331-1.554 0-.827-.331-1.554-.298-.761-.86-1.29-.529-.562-1.257-.86-.728-.331-1.554-.331-.86 0-1.587.331-.695.298-1.257.86-.529.529-.827 1.29-.298.728-.298 1.554z"/><use xlink:href="#C" x="143.816" y="-7.962"/></g><g fill="#eee"><path d="M90.203 20.254v1.945q.463-.81 1.273-1.389.81-.602 1.898-.602v1.968q-.602 0-1.158.232-.556.232-.995.625-.44.37-.718.88-.278.509-.301 1.088v6.598h-1.945V20.254zm14.516 8.682q-.949 1.412-2.246 2.06-1.273.648-2.778.648-1.181 0-2.223-.44-1.042-.463-1.806-1.227-.764-.764-1.227-1.806Q94 27.13 94 25.949q0-1.204.44-2.246.463-1.042 1.227-1.806.764-.787 1.806-1.227 1.042-.463 2.223-.463 1.505 0 2.824.695 1.343.695 2.315 2.153l-6.714 6.251q.37.255.926.37.556.093 1.111.023.972-.116 1.806-.648.857-.556 1.435-1.389zm-8.867-3.287q-.069.88.232 1.621.301.741.857 1.158l5.302-5.163q-.44-.532-1.181-.857-.741-.347-1.621-.301-.718.046-1.343.324-.625.278-1.111.764-.463.463-.764 1.088-.301.625-.37 1.366z"/><use xlink:href="#J"/><path d="M118.123 31.598h-1.945v-7.432q0-.579-.278-1.042-.278-.463-.718-.741-.44-.278-.972-.301-.509-.046-.996.208-.509.232-.857.741-.347.486-.394 1.435v7.131h-1.968V20.254h1.968v1.412q.486-.695 1.181-1.065.695-.394 1.551-.394 1.088 0 1.852.532.764.532 1.158 1.389.44-.903 1.204-1.412.787-.509 1.852-.509.787 0 1.435.324.671.301 1.134.857.463.532.718 1.25.255.718.255 1.528v7.432h-1.945v-7.432q0-.602-.278-1.065-.278-.463-.718-.718-.44-.278-.972-.301-.509-.046-.996.208-.556.232-.926.787-.347.556-.347 1.574z"/><use xlink:href="#K"/><use xlink:href="#L"/><use xlink:href="#J" x="45.075"/><use xlink:href="#M"/><use xlink:href="#J" x="61.93"/><use xlink:href="#M" x="16.854"/><use xlink:href="#L" x="46.256"/><path d="M92.842 52.256q0-.718-.44-1.204-.44-.509-1.065-.509-.602 0-1.042.509-.44.486-.44 1.158 0 .625.532 1.042.532.394 1.667.718 1.296.37 1.922 1.065.648.671.648 2.014 0 .695-.255 1.296-.255.602-.718 1.065-.44.44-1.042.718-.602.255-1.32.255-.695 0-1.296-.232-.602-.255-1.065-.671-.44-.44-.718-1.042-.255-.602-.255-1.32h1.945q0 .695.44 1.158.463.463 1.065.463.602 0 1.042-.44.44-.463.44-1.158 0-.44-.185-.718-.162-.278-.463-.463-.278-.185-.695-.324-.394-.139-.88-.278-1.158-.324-1.945-1.042-.764-.741-.764-2.037 0-.718.232-1.32.255-.602.695-1.042.463-.463 1.065-.718.602-.255 1.343-.255 1.505 0 2.408.903.926.88.926 2.408z"/><use xlink:href="#N"/><path d="M112.59 46.491q-.81-.046-1.32.463-.486.509-.486 1.273v.718h2.593v-3.519h1.968v3.519h1.829v1.621h-1.829v6.274q0 .81.509 1.32.509.486 1.32.486v1.736q-1.875 0-2.848-.903-.949-.903-.949-2.639v-6.274h-2.593v9.77h-1.945v-9.77h-1.111v-1.621h1.111v-.741q0-.741.208-1.366.232-.625.671-1.042.463-.44 1.158-.648.718-.208 1.713-.116z"/><path d="M124.073 48.991l.671 1.852.741-1.852h2.084l-1.806 4.561 1.621 4.399 3.704-8.959h2.084l-4.514 11.39h-2.084l-1.736-4.538-1.783 4.538h-2.084l-4.329-11.39h2.107l3.311 8.612 1.759-4.445-1.574-4.167z"/><use xlink:href="#K" x="7.756" y="28.737"/><path d="M148.451 48.991v1.945q.463-.81 1.273-1.389.81-.602 1.898-.602v1.968q-.602 0-1.158.232-.556.232-.995.625-.44.37-.718.88-.278.509-.301 1.088v6.598h-1.945V48.991z"/><use xlink:href="#O"/><path d="M87.726 83.424q0-1.204.417-2.246.417-1.042 1.111-1.806.718-.787 1.667-1.227.972-.463 2.084-.463 1.32 0 2.385.625 1.065.625 1.759 1.667v-5.811h1.968v14.909h-1.968V86.85q-.695 1.042-1.759 1.667-1.065.602-2.385.602-1.111 0-2.084-.44-.949-.463-1.667-1.227-.695-.764-1.111-1.806-.417-1.042-.417-2.223zm1.968 0q0 .764.278 1.459.301.671.787 1.181.509.509 1.181.81.695.278 1.482.278.764 0 1.435-.278.695-.301 1.204-.81.509-.509.787-1.181.301-.695.301-1.459v-.139q-.046-.741-.347-1.389-.301-.671-.81-1.158-.486-.509-1.158-.787-.648-.301-1.412-.301-.787 0-1.482.301-.671.301-1.181.81-.486.509-.787 1.204-.278.695-.278 1.459z"/><use xlink:href="#O" x="-51.882" y="28.737"/><path d="M113.285 77.728l3.311 8.612 3.426-8.612h2.084l-4.514 11.39h-2.084l-4.329-11.39z"/><use xlink:href="#P"/><path d="M136.413 74.163v14.909h-1.945V74.163z"/><use xlink:href="#N" x="42.066" y="28.738"/><path d="M161.856 83.424q0 1.181-.417 2.223-.417 1.042-1.134 1.806-.695.764-1.667 1.227-.949.44-2.06.44-1.32 0-2.408-.602-1.065-.625-1.736-1.667v5.626h-1.945V77.728h1.945v2.246q.671-1.042 1.736-1.667 1.088-.625 2.408-.625 1.111 0 2.06.463.972.44 1.667 1.227.718.764 1.134 1.806.417 1.042.417 2.246zm-1.945 0q0-.764-.301-1.459-.278-.695-.787-1.204-.509-.509-1.204-.81-.671-.301-1.435-.301-.764 0-1.435.301-.671.278-1.181.787-.509.486-.81 1.158-.301.648-.324 1.389v.139q0 .764.278 1.459.301.671.81 1.181.509.509 1.181.81.695.278 1.482.278.764 0 1.435-.278.695-.301 1.204-.81.509-.509.787-1.181.301-.695.301-1.459zm11.483 5.648h-1.945V81.64q0-.579-.278-1.042-.278-.463-.718-.741-.44-.278-.972-.301-.509-.046-.995.208-.509.232-.857.741-.347.486-.394 1.435v7.131h-1.968V77.728h1.968v1.412q.486-.695 1.181-1.065.695-.394 1.551-.394 1.088 0 1.852.532.764.532 1.158 1.389.44-.903 1.204-1.412.787-.509 1.852-.509.787 0 1.435.324.671.301 1.134.857.463.532.718 1.25.255.718.255 1.528v7.432h-1.945V81.64q0-.602-.278-1.065-.278-.463-.718-.718-.44-.278-.972-.301-.509-.046-.995.208-.556.232-.926.787-.347.556-.347 1.574z"/><use xlink:href="#P" x="56.535"/><path d="M199.985 89.072v-5.649q0-.764-.301-1.459-.278-.695-.787-1.204-.509-.532-1.204-.833-.671-.301-1.435-.301-.764 0-1.435.301-.671.278-1.181.787-.509.509-.81 1.227-.301.718-.324 1.574v5.556h-1.945V77.728h1.945v2.385q.695-1.181 1.806-1.806 1.111-.625 2.454-.625 1.088 0 2.014.417.949.417 1.644 1.158.695.718 1.088 1.736.417.995.417 2.199v5.88zm2.732-11.39h1.065v-3.519h1.968v3.519h2.06v1.621h-2.06v6.274q0 .81.509 1.32.509.486 1.32.486v1.736q-1.875 0-2.848-.903-.949-.903-.949-2.639v-6.274h-1.065zm5.047 10.163q0-.509.37-.857.37-.37.857-.37.532 0 .88.37.37.347.37.857 0 .509-.37.88-.347.347-.88.347-.486 0-.857-.347-.37-.37-.37-.88z"/></g><defs ><path id="B" d="M-110.272 61.311q0-1.72.562-3.208.562-1.488 1.521-2.58.992-1.124 2.315-1.753 1.323-.661 2.844-.661 1.488 0 2.745.628 1.257.628 2.183 1.687v-2.249h4.134v16.206h-4.134v-2.249q-.926 1.091-2.183 1.72-1.257.595-2.745.595-1.521 0-2.844-.628-1.323-.661-2.315-1.753-.959-1.091-1.521-2.58-.562-1.488-.562-3.175zm4.134 0q0 .827.298 1.554.298.728.827 1.29.562.529 1.257.86.728.298 1.588.298.827 0 1.554-.298.728-.331 1.257-.86.562-.562.86-1.29.331-.728.331-1.554 0-.827-.331-1.554-.298-.761-.86-1.29-.529-.562-1.257-.86-.728-.331-1.554-.331-.86 0-1.588.331-.695.298-1.257.86-.529.529-.827 1.29-.298.728-.298 1.554z"/><path id="C" d="M-91.983 47.156q2.183-.43 3.737-.232 1.587.198 2.613.827 1.025.628 1.521 1.654.496.992.496 2.216v3.473q0 1.852.827 2.745.86.893 3.241.893v4.333q-2.15-.033-3.109.562-.959.595-.959 2.183v3.473q0 1.356-.397 2.48-.364 1.158-1.323 1.885-.959.761-2.58 1.058-1.587.298-4.068-.033v-4.366q1.224.331 1.984.232.794-.066 1.257-.397.463-.331.628-.827.198-.496.198-.992v-3.241q0-.86.198-1.488.198-.661.595-1.124.397-.463.959-.827.595-.364 1.323-.661-.761-.298-1.356-.595-.562-.331-.959-.794-.364-.463-.562-1.124-.198-.661-.198-1.687v-3.274q0-.496-.165-.992-.165-.529-.628-.86-.463-.364-1.257-.43-.794-.099-2.017.298z"/><path id="D" d="M-60.033 51.716q-1.257-.397-2.051-.298-.761.066-1.224.43-.463.331-.628.86-.165.496-.165.992v3.274q0 1.025-.198 1.687-.198.661-.595 1.124-.364.463-.959.794-.562.298-1.323.595.728.298 1.29.661.595.364.992.827.397.463.595 1.124.198.628.198 1.488v3.241q0 .496.165.992.198.496.661.827.463.331 1.224.397.794.099 2.017-.232v4.366q-2.48.331-4.101.033-1.587-.298-2.547-1.058-.959-.728-1.356-1.885-.364-1.124-.364-2.48v-3.473q0-1.587-.959-2.183-.959-.595-3.109-.562v-4.333q2.381 0 3.208-.893.86-.893.86-2.745v-3.473q0-1.224.496-2.216.496-1.025 1.521-1.654 1.025-.628 2.58-.827 1.587-.198 3.77.232z"/><path id="E" d="M44.183 62.538q0-1.72.562-3.208.562-1.488 1.521-2.58.992-1.124 2.315-1.753 1.323-.661 2.844-.661 1.488 0 2.745.628 1.257.628 2.183 1.687v-2.249h4.134v16.206h-4.134v-2.249q-.926 1.091-2.183 1.72-1.257.595-2.745.595-1.521 0-2.844-.628-1.323-.661-2.315-1.753-.959-1.091-1.521-2.58-.562-1.488-.562-3.175zm4.134 0q0 .827.298 1.554.298.728.827 1.29.562.529 1.257.86.728.298 1.587.298.827 0 1.554-.298.728-.331 1.257-.86.562-.562.86-1.29.331-.728.331-1.554 0-.827-.331-1.554-.298-.761-.86-1.29-.529-.562-1.257-.86-.728-.331-1.554-.331-.86 0-1.587.331-.695.298-1.257.86-.529.529-.827 1.29-.298.728-.298 1.554z"/><path id="F" d="M-49.323 89.238q-1.257-.397-2.051-.298-.761.066-1.224.43-.463.331-.628.86-.165.496-.165.992v3.274q0 1.025-.198 1.687-.198.661-.595 1.124-.364.463-.959.794-.562.298-1.323.595.728.298 1.29.661.595.364.992.827.397.463.595 1.124.198.628.198 1.488v3.241q0 .496.165.992.198.496.661.827.463.331 1.224.397.794.099 2.017-.232v4.366q-2.48.331-4.101.033-1.587-.298-2.547-1.058-.959-.728-1.356-1.885-.364-1.124-.364-2.48v-3.473q0-1.588-.959-2.183-.959-.595-3.109-.562v-4.333q2.381 0 3.208-.893.86-.893.86-2.745v-3.473q0-1.224.496-2.216.496-1.025 1.521-1.654 1.025-.628 2.58-.827 1.587-.198 3.77.232z"/><path id="G" d="M-130.255 14.938q-1.257-.397-2.051-.298-.761.066-1.224.43-.463.331-.628.86-.165.496-.165.992v3.274q0 1.025-.198 1.687-.198.661-.595 1.124-.364.463-.959.794-.562.298-1.323.595.728.298 1.29.661.595.364.992.827.397.463.595 1.124.198.628.198 1.488v3.241q0 .496.165.992.198.496.661.827.463.331 1.224.397.794.099 2.017-.232v4.366q-2.48.331-4.101.033-1.588-.298-2.547-1.058-.959-.728-1.356-1.885-.364-1.124-.364-2.48v-3.473q0-1.587-.959-2.183-.959-.595-3.109-.562v-4.333q2.381 0 3.208-.893.86-.893.86-2.745v-3.473q0-1.224.496-2.216.496-1.025 1.521-1.654 1.025-.628 2.58-.827 1.587-.198 3.77.232z"/><path id="H" d="M-110.445 10.572q2.183-.43 3.737-.232 1.588.198 2.613.827 1.025.628 1.521 1.654.496.992.496 2.216v3.473q0 1.852.827 2.745.86.893 3.241.893v4.333q-2.15-.033-3.109.562-.959.595-.959 2.183v3.473q0 1.356-.397 2.48-.364 1.158-1.323 1.885-.959.761-2.58 1.058-1.588.298-4.068-.033v-4.366q1.224.331 1.984.232.794-.066 1.257-.397.463-.331.628-.827.198-.496.198-.992v-3.241q0-.86.198-1.488.198-.661.595-1.124.397-.463.959-.827.595-.364 1.323-.661-.761-.298-1.356-.595-.562-.331-.959-.794-.364-.463-.562-1.124-.198-.661-.198-1.687v-3.274q0-.496-.165-.992-.165-.529-.628-.86-.463-.364-1.257-.43-.794-.099-2.017.298z"/><path id="I" d="M-73.114-25.074q2.183-.43 3.737-.232 1.587.198 2.613.827 1.025.628 1.521 1.654.496.992.496 2.216v3.473q0 1.852.827 2.745.86.893 3.241.893v4.333q-2.15-.033-3.109.562-.959.595-.959 2.183v3.473q0 1.356-.397 2.48-.364 1.158-1.323 1.885-.959.761-2.58 1.058-1.588.298-4.068-.033v-4.366q1.224.331 1.984.232.794-.066 1.257-.397.463-.331.628-.827.198-.496.198-.992v-3.241q0-.86.198-1.488.198-.661.595-1.124.397-.463.959-.827.595-.364 1.323-.661-.761-.298-1.356-.595-.562-.331-.959-.794-.364-.463-.562-1.124-.198-.661-.198-1.687v-3.274q0-.496-.165-.992-.165-.529-.628-.86-.463-.364-1.257-.43-.794-.099-2.017.298z"/><path id="J" d="M108.191 20.254v11.344h-1.945V20.254zm-2.223-3.38q0-.532.37-.88.37-.37.857-.37.532 0 .88.37.37.347.37.88 0 .486-.37.857-.347.37-.88.37-.486 0-.857-.37-.37-.37-.37-.857z"/><path id="K" d="M125.508 25.949q0-1.204.417-2.246.417-1.042 1.111-1.806.718-.787 1.667-1.227.972-.463 2.084-.463 1.32 0 2.408.648 1.088.625 1.783 1.69v-2.292h1.968v11.344h-1.968v-2.269q-.695 1.065-1.783 1.69-1.088.625-2.408.625-1.111 0-2.084-.44-.949-.463-1.667-1.227-.695-.764-1.111-1.806-.417-1.042-.417-2.223zm1.968 0q0 .764.278 1.459.301.671.787 1.181.509.509 1.181.81.695.278 1.482.278.764 0 1.435-.278.695-.301 1.204-.81.509-.509.81-1.181.301-.695.301-1.459 0-.764-.301-1.459-.301-.695-.81-1.204-.509-.509-1.204-.81-.671-.301-1.435-.301-.787 0-1.482.301-.671.301-1.181.81-.486.509-.787 1.204-.278.695-.278 1.459z"/><path id="L" d="M143.89 31.645q-1.204 0-2.246-.44-1.019-.463-1.783-1.227-.764-.764-1.204-1.806-.44-1.042-.44-2.223 0-1.204.44-2.246.44-1.042 1.204-1.806.764-.787 1.806-1.227 1.042-.463 2.246-.463h5.649v1.783l-2.755-.046q1.32.509 2.06 1.574.741 1.065.787 2.361.023.81-.232 1.621-.232.81-.718 1.528-.486.695-1.181 1.227-.695.532-1.551.787.463.162.81.509.347.347.579.787.232.44.301.949.093.509.023.995-.116.602-.44 1.134-.301.532-.787.903-.486.394-1.134.602-.648.232-1.412.232-.787 0-1.505-.232-.695-.208-1.227-.671-.532-.44-.857-1.158-.301-.695-.301-1.667h1.968q0 .394.162.718.162.347.417.579.278.255.625.394.347.139.718.139.787 0 1.32-.556.556-.532.556-1.273 0-.741-.532-1.273-.532-.509-1.366-.509zm3.75-5.695q0-.764-.301-1.459-.301-.695-.81-1.204-.486-.509-1.181-.81-.671-.301-1.435-.301-.764 0-1.459.301-.671.301-1.181.81-.509.509-.81 1.204-.278.695-.278 1.459 0 .764.278 1.459.301.671.81 1.181.509.509 1.181.81.695.278 1.459.278.764 0 1.435-.301.695-.301 1.181-.787.509-.509.81-1.181.301-.695.301-1.459z"/><path id="M" d="M164.379 31.598v-5.649q0-.764-.301-1.459-.278-.695-.787-1.204-.509-.532-1.204-.833-.671-.301-1.435-.301-.764 0-1.435.301-.671.278-1.181.787-.509.509-.81 1.227-.301.718-.324 1.574v5.556h-1.945V20.254h1.945v2.385q.695-1.181 1.806-1.806 1.111-.625 2.454-.625 1.088 0 2.014.417.949.417 1.644 1.158.695.718 1.088 1.736.417.995.417 2.199v5.88z"/><path id="N" d="M105.297 54.686q0-.764-.301-1.459-.278-.695-.787-1.204-.509-.509-1.204-.81-.671-.301-1.435-.301-.764 0-1.459.301-.671.301-1.181.81-.509.509-.81 1.204-.278.695-.278 1.459 0 .764.278 1.459.301.671.81 1.181.509.509 1.181.81.695.278 1.459.278.764 0 1.435-.278.695-.301 1.204-.81.509-.509.787-1.181.301-.695.301-1.459zm1.968 0q0 1.181-.463 2.223-.44 1.042-1.204 1.806-.764.764-1.806 1.227-1.042.44-2.223.44-1.204 0-2.246-.44-1.042-.463-1.806-1.227-.764-.764-1.204-1.806-.44-1.042-.44-2.223 0-1.204.44-2.246.44-1.042 1.204-1.806.764-.787 1.806-1.227 1.042-.463 2.246-.463 1.181 0 2.223.463 1.042.44 1.806 1.227.764.764 1.204 1.806.463 1.042.463 2.246z"/><path id="O" d="M162.967 57.673q-.949 1.412-2.246 2.06-1.273.648-2.778.648-1.181 0-2.223-.44-1.042-.463-1.806-1.227-.764-.764-1.227-1.806-.44-1.042-.44-2.223 0-1.204.44-2.246.463-1.042 1.227-1.806.764-.787 1.806-1.227 1.042-.463 2.223-.463 1.505 0 2.824.695 1.343.695 2.315 2.153l-6.714 6.251q.37.255.926.37.556.093 1.111.023.972-.116 1.806-.648.857-.556 1.435-1.389zm-8.867-3.287q-.069.88.232 1.621.301.741.857 1.158l5.302-5.163q-.44-.532-1.181-.857-.741-.347-1.621-.301-.718.046-1.343.324-.625.278-1.111.764-.463.463-.764 1.088-.301.625-.37 1.366z"/><path id="P" d="M132.94 86.41q-.949 1.412-2.246 2.06-1.273.648-2.778.648-1.181 0-2.222-.44-1.042-.463-1.806-1.227-.764-.764-1.227-1.806-.44-1.042-.44-2.223 0-1.204.44-2.246.463-1.042 1.227-1.806.764-.787 1.806-1.227 1.042-.463 2.222-.463 1.505 0 2.824.695 1.343.695 2.315 2.153l-6.714 6.251q.37.255.926.37.556.093 1.111.023.972-.116 1.806-.648.857-.556 1.435-1.389zm-8.867-3.287q-.07.88.232 1.621.301.741.857 1.158l5.302-5.163q-.44-.532-1.181-.857-.741-.347-1.621-.301-.718.046-1.343.324-.625.278-1.111.764-.463.463-.764 1.088-.301.625-.37 1.366z"/></defs></svg>