<svg width="1800" height="800" viewBox="0 0 476.25 211.667" xml:space="preserve" xmlns="http://www.w3.org/2000/svg"><path style="display:inline;opacity:1;fill:#02071b;stroke-width:.253609" d="M0 0h476.25v211.667H0Z"/><g style="opacity:.06;fill:#eee;fill-opacity:1"><g style="font-size:66.1458px;line-height:1.25;opacity:1;stroke-width:.264583"><path d="M-165.365 128.101q-2.513-.794-4.1-.595-1.522.132-2.448.86-.926.661-1.257 1.72-.33.992-.33 1.984v6.548q0 2.05-.398 3.374-.396 1.323-1.19 2.249-.728.926-1.918 1.587-1.125.595-2.646 1.19 1.455.596 2.58 1.324 1.19.727 1.984 1.653t1.19 2.25q.397 1.256.397 2.976v6.482q0 .992.331 1.984.397.993 1.323 1.654.926.662 2.447.794 1.588.198 4.035-.463v8.731q-4.96.662-8.202.066-3.175-.595-5.093-2.116-1.918-1.456-2.712-3.77-.728-2.25-.728-4.962v-6.945q0-3.175-1.918-4.366-1.918-1.19-6.218-1.124v-8.665q4.763 0 6.417-1.786 1.72-1.786 1.72-5.49v-6.946q0-2.447.992-4.431.992-2.05 3.042-3.308 2.05-1.256 5.16-1.653 3.175-.397 7.54.463zm3.043 19.579q0-3.44 1.124-6.416 1.125-2.977 3.043-5.16 1.985-2.248 4.63-3.505 2.646-1.323 5.689-1.323 2.976 0 5.49 1.257 2.514 1.257 4.366 3.373v-4.498h8.268v32.412h-8.268v-4.498q-1.852 2.183-4.366 3.44-2.514 1.19-5.49 1.19-3.043 0-5.689-1.257-2.645-1.323-4.63-3.505-1.918-2.183-3.043-5.16-1.124-2.976-1.124-6.35zm8.268 0q0 1.654.596 3.11.595 1.454 1.653 2.579 1.125 1.058 2.514 1.72 1.455.595 3.175.595 1.653 0 3.109-.595 1.455-.662 2.513-1.72 1.125-1.125 1.72-2.58.661-1.455.661-3.109 0-1.653-.661-3.109-.595-1.521-1.72-2.58-1.058-1.124-2.513-1.72-1.456-.66-3.11-.66-1.72 0-3.174.66-1.39.596-2.514 1.72-1.058 1.059-1.653 2.58-.596 1.456-.596 3.11zm28.311-28.31q4.365-.86 7.474-.463 3.175.397 5.226 1.653 2.05 1.257 3.042 3.308.992 1.984.992 4.431v6.946q0 3.704 1.654 5.49 1.72 1.786 6.482 1.786v8.665q-4.299-.066-6.217 1.124-1.919 1.191-1.919 4.366v6.945q0 2.712-.793 4.961-.728 2.315-2.646 3.77-1.918 1.522-5.16 2.117-3.174.596-8.135-.066v-8.731q2.447.661 3.968.463 1.588-.132 2.514-.794.926-.661 1.257-1.653.397-.993.397-1.985v-6.482q0-1.72.396-2.977.397-1.323 1.191-2.249.794-.926 1.918-1.653 1.19-.728 2.646-1.323-1.521-.596-2.712-1.19-1.124-.662-1.918-1.588-.728-.926-1.125-2.25-.396-1.322-.396-3.373v-6.548q0-.992-.331-1.985-.33-1.058-1.257-1.72-.926-.727-2.513-.86-1.588-.198-4.035.596z" style="font-family:BunyaW03-Bold;-inkscape-font-specification:BunyaW03-Bold" transform="rotate(-40 5.337 -92.527)" aria-label="{a}"/></g><g style="font-size:66.1458px;line-height:1.25;opacity:1;stroke-width:.264583"><path d="M-61.844 128.491q-2.514-.793-4.101-.595-1.522.132-2.448.86-.926.661-1.257 1.72-.33.992-.33 1.984v6.549q0 2.05-.397 3.373-.397 1.323-1.19 2.249-.728.926-1.919 1.587-1.124.596-2.646 1.191 1.455.595 2.58 1.323 1.19.728 1.984 1.654.794.926 1.19 2.249.398 1.256.398 2.976v6.482q0 .993.33 1.985.397.992 1.323 1.653.926.662 2.448.794 1.587.199 4.035-.463v8.731q-4.961.662-8.202.067-3.175-.596-5.094-2.117-1.918-1.455-2.712-3.77-.727-2.25-.727-4.961v-6.946q0-3.175-1.918-4.365-1.919-1.19-6.218-1.125v-8.665q4.762 0 6.416-1.786 1.72-1.786 1.72-5.49v-6.945q0-2.448.992-4.432.992-2.05 3.043-3.307 2.05-1.257 5.16-1.654 3.174-.397 7.54.463zm3.042 19.579q0-3.439 1.125-6.416 1.124-2.976 3.043-5.159 1.984-2.249 4.63-3.506 2.646-1.323 5.688-1.323 2.977 0 5.49 1.257 2.514 1.257 4.366 3.374v-4.498h8.268v32.411h-8.268v-4.498q-1.852 2.183-4.366 3.44-2.513 1.19-5.49 1.19-3.042 0-5.688-1.256-2.646-1.323-4.63-3.506-1.919-2.183-3.043-5.16-1.125-2.976-1.125-6.35zm8.269 0q0 1.654.595 3.11.595 1.455 1.654 2.58 1.124 1.057 2.513 1.719 1.455.595 3.175.595 1.654 0 3.109-.595 1.455-.662 2.514-1.72 1.124-1.124 1.72-2.58.66-1.455.66-3.108 0-1.654-.66-3.11-.596-1.52-1.72-2.579-1.059-1.124-2.514-1.72-1.455-.661-3.109-.661-1.72 0-3.175.661-1.389.596-2.513 1.72-1.059 1.058-1.654 2.58-.595 1.455-.595 3.109zm28.31-28.31q4.366-.86 7.475-.463 3.175.397 5.225 1.654t3.043 3.307q.992 1.984.992 4.432v6.945q0 3.704 1.654 5.49 1.72 1.786 6.482 1.786v8.665q-4.3-.066-6.218 1.125-1.918 1.19-1.918 4.365v6.946q0 2.712-.794 4.96-.727 2.316-2.646 3.77-1.918 1.522-5.159 2.118-3.175.595-8.136-.067v-8.73q2.447.66 3.969.462 1.587-.132 2.513-.793.926-.662 1.257-1.654.397-.992.397-1.984v-6.483q0-1.72.397-2.976.397-1.323 1.19-2.25.794-.925 1.919-1.653 1.19-.728 2.646-1.323-1.522-.595-2.712-1.19-1.125-.662-1.919-1.588-.727-.926-1.124-2.249-.397-1.323-.397-3.373v-6.549q0-.992-.33-1.984-.331-1.059-1.258-1.72-.926-.728-2.513-.86-1.588-.198-4.035.595z" style="font-family:BunyaW03-Bold;-inkscape-font-specification:BunyaW03-Bold" transform="rotate(-40 5.337 -92.527)" aria-label="{a}"/></g><g style="font-size:66.1458px;line-height:1.25;opacity:1;stroke-width:.264583"><path d="M42.334 128.75q-2.513-.793-4.101-.595-1.521.133-2.447.86-.926.662-1.257 1.72-.33.992-.33 1.984v6.549q0 2.05-.398 3.373-.397 1.323-1.19 2.25-.728.925-1.919 1.587-1.124.595-2.645 1.19 1.455.596 2.58 1.323 1.19.728 1.984 1.654.793.926 1.19 2.249.397 1.257.397 2.976v6.483q0 .992.33 1.984.398.992 1.324 1.654.926.661 2.447.794 1.588.198 4.035-.463v8.73q-4.96.662-8.202.067-3.175-.595-5.093-2.117-1.918-1.455-2.712-3.77-.728-2.25-.728-4.961v-6.945q0-3.175-1.918-4.366-1.918-1.19-6.218-1.124v-8.666q4.763 0 6.416-1.785 1.72-1.786 1.72-5.49v-6.946q0-2.447.992-4.432.993-2.05 3.043-3.307 2.05-1.257 5.16-1.654 3.174-.396 7.54.463zm3.043 19.58q0-3.44 1.124-6.416 1.125-2.977 3.043-5.16 1.984-2.249 4.63-3.505 2.646-1.323 5.689-1.323 2.976 0 5.49 1.256 2.513 1.257 4.365 3.374v-4.498h8.269v32.411h-8.269v-4.497q-1.852 2.182-4.365 3.44-2.514 1.19-5.49 1.19-3.043 0-5.689-1.257-2.646-1.323-4.63-3.506-1.918-2.183-3.043-5.16-1.124-2.976-1.124-6.35zm8.268 0q0 1.654.595 3.109.596 1.455 1.654 2.58 1.124 1.058 2.514 1.72 1.455.594 3.175.594 1.653 0 3.108-.595 1.456-.661 2.514-1.72 1.124-1.124 1.72-2.58.661-1.454.661-3.108 0-1.654-.661-3.109-.596-1.521-1.72-2.58-1.058-1.124-2.514-1.72-1.455-.66-3.108-.66-1.72 0-3.175.66-1.39.596-2.514 1.72-1.058 1.059-1.654 2.58-.595 1.455-.595 3.109zm28.31-28.31q4.366-.86 7.475-.464 3.175.397 5.225 1.654 2.051 1.257 3.043 3.307.992 1.985.992 4.432v6.945q0 3.705 1.654 5.49 1.72 1.786 6.482 1.786v8.666q-4.3-.067-6.217 1.124-1.919 1.19-1.919 4.366v6.945q0 2.712-.793 4.96-.728 2.316-2.646 3.771-1.918 1.522-5.16 2.117-3.175.595-8.136-.066v-8.731q2.448.661 3.97.463 1.587-.133 2.513-.794.926-.662 1.256-1.654.397-.992.397-1.984v-6.482q0-1.72.397-2.977.397-1.323 1.19-2.249.795-.926 1.92-1.654 1.19-.727 2.645-1.323-1.521-.595-2.712-1.19-1.125-.662-1.918-1.588-.728-.926-1.125-2.249t-.397-3.373v-6.549q0-.992-.33-1.984-.331-1.058-1.257-1.72-.926-.727-2.514-.86-1.587-.198-4.035.596z" style="font-family:BunyaW03-Bold;-inkscape-font-specification:BunyaW03-Bold" transform="rotate(-40 5.337 -92.527)" aria-label="{a}"/></g><g style="font-size:66.1458px;line-height:1.25;opacity:1;stroke-width:.264583"><path d="M143.546 130.555q-2.514-.793-4.101-.595-1.522.132-2.448.86-.926.661-1.256 1.72-.331.992-.331 1.984v6.548q0 2.051-.397 3.374t-1.19 2.249q-.728.926-1.919 1.587-1.124.596-2.646 1.191 1.455.595 2.58 1.323 1.19.727 1.984 1.654.794.926 1.19 2.248.398 1.257.398 2.977v6.482q0 .993.33 1.985.397.992 1.323 1.653.926.662 2.448.794 1.587.199 4.035-.463v8.731q-4.961.662-8.202.066-3.175-.595-5.094-2.116-1.918-1.455-2.712-3.77-.727-2.25-.727-4.961v-6.946q0-3.175-1.918-4.365-1.919-1.191-6.218-1.125v-8.665q4.762 0 6.416-1.786 1.72-1.786 1.72-5.49v-6.945q0-2.448.992-4.432.992-2.05 3.043-3.307 2.05-1.257 5.16-1.654 3.174-.397 7.54.463zm3.042 19.579q0-3.44 1.125-6.416 1.124-2.976 3.043-5.16 1.984-2.248 4.63-3.505 2.646-1.323 5.688-1.323 2.977 0 5.49 1.257 2.514 1.257 4.366 3.373v-4.497h8.268v32.411h-8.268v-4.498q-1.852 2.183-4.366 3.44-2.513 1.19-5.49 1.19-3.042 0-5.688-1.256-2.646-1.323-4.63-3.506-1.919-2.183-3.043-5.16-1.125-2.976-1.125-6.35zm8.269 0q0 1.654.595 3.11.595 1.454 1.654 2.579 1.124 1.058 2.513 1.72 1.455.595 3.175.595 1.654 0 3.109-.595 1.455-.662 2.514-1.72 1.124-1.125 1.72-2.58.66-1.455.66-3.109 0-1.653-.66-3.108-.596-1.522-1.72-2.58-1.059-1.125-2.514-1.72-1.455-.661-3.109-.661-1.72 0-3.175.661-1.389.595-2.513 1.72-1.059 1.058-1.654 2.58-.595 1.455-.595 3.108zm28.31-28.31q4.366-.86 7.475-.463 3.175.397 5.225 1.654 2.05 1.256 3.043 3.307.992 1.984.992 4.432v6.945q0 3.704 1.654 5.49 1.72 1.786 6.482 1.786v8.665q-4.3-.066-6.218 1.125-1.918 1.19-1.918 4.365v6.946q0 2.712-.794 4.96-.727 2.316-2.646 3.77-1.918 1.522-5.159 2.117-3.175.596-8.136-.066v-8.73q2.447.66 3.969.462 1.587-.132 2.513-.794.926-.661 1.257-1.653.397-.992.397-1.985v-6.482q0-1.72.397-2.976.397-1.323 1.19-2.25.794-.925 1.919-1.653 1.19-.728 2.646-1.323-1.522-.595-2.712-1.19-1.125-.662-1.919-1.588-.727-.926-1.124-2.25-.397-1.322-.397-3.373v-6.548q0-.992-.33-1.984-.331-1.059-1.257-1.72-.927-.728-2.514-.86-1.588-.198-4.035.595z" style="font-family:BunyaW03-Bold;-inkscape-font-specification:BunyaW03-Bold" transform="rotate(-40 5.337 -92.527)" aria-label="{a}"/></g><g style="font-size:66.1458px;line-height:1.25;opacity:1;stroke-width:.264583"><path d="M-143.945 203.144q-2.514-.794-4.102-.596-1.52.133-2.447.86-.926.662-1.257 1.72-.33.992-.33 1.985v6.548q0 2.05-.397 3.373-.397 1.323-1.19 2.25-.728.925-1.92 1.587-1.124.595-2.645 1.19 1.455.596 2.58 1.323 1.19.728 1.984 1.654.794.926 1.19 2.249.398 1.257.398 2.977v6.482q0 .992.33 1.984.397.992 1.323 1.654.926.661 2.448.794 1.587.198 4.035-.463v8.73q-4.961.662-8.203.067-3.175-.595-5.093-2.117-1.918-1.455-2.712-3.77-.727-2.249-.727-4.961v-6.945q0-3.175-1.919-4.366-1.918-1.19-6.217-1.124v-8.665q4.762 0 6.416-1.786 1.72-1.786 1.72-5.49v-6.946q0-2.447.992-4.432.992-2.05 3.043-3.307 2.05-1.257 5.159-1.654 3.175-.396 7.54.463zm3.042 19.579q0-3.44 1.125-6.416 1.124-2.977 3.042-5.16 1.985-2.249 4.63-3.505 2.647-1.323 5.69-1.323 2.976 0 5.49 1.257 2.513 1.256 4.365 3.373v-4.498h8.268v32.411h-8.268v-4.497q-1.852 2.182-4.366 3.44-2.513 1.19-5.49 1.19-3.042 0-5.688-1.257-2.646-1.323-4.63-3.506-1.919-2.183-3.043-5.16-1.125-2.976-1.125-6.35zm8.269 0q0 1.654.595 3.109t1.653 2.58q1.125 1.058 2.514 1.72 1.455.595 3.175.595 1.654 0 3.109-.596 1.455-.661 2.513-1.72 1.125-1.124 1.72-2.58.662-1.454.662-3.108 0-1.654-.662-3.109-.595-1.521-1.72-2.58-1.058-1.124-2.513-1.72-1.455-.66-3.109-.66-1.72 0-3.175.66-1.39.596-2.514 1.72-1.058 1.059-1.653 2.58-.595 1.455-.595 3.109zm28.31-28.31q4.366-.86 7.474-.463 3.175.396 5.226 1.653 2.05 1.257 3.043 3.307.992 1.985.992 4.432v6.946q0 3.704 1.653 5.49 1.72 1.786 6.483 1.786v8.665q-4.3-.066-6.218 1.124-1.918 1.19-1.918 4.366v6.945q0 2.712-.794 4.961-.728 2.315-2.646 3.77-1.918 1.522-5.16 2.117-3.174.595-8.135-.066v-8.731q2.447.661 3.969.463 1.587-.133 2.513-.794.926-.662 1.257-1.654.397-.992.397-1.984v-6.482q0-1.72.397-2.977.397-1.323 1.19-2.249.794-.926 1.919-1.654 1.19-.727 2.645-1.322-1.521-.596-2.712-1.191-1.124-.662-1.918-1.588-.727-.926-1.124-2.249-.397-1.322-.397-3.373v-6.548q0-.993-.33-1.985-.332-1.058-1.258-1.72-.926-.727-2.513-.86-1.588-.198-4.035.596z" style="font-family:BunyaW03-Bold;-inkscape-font-specification:BunyaW03-Bold" transform="rotate(-40 5.337 -92.527)" aria-label="{a}"/></g><g style="font-size:66.1458px;line-height:1.25;opacity:1;stroke-width:.264583"><path d="M-40.425 203.534q-2.514-.794-4.101-.595-1.521.132-2.447.86-.927.661-1.257 1.72-.331.992-.331 1.984v6.548q0 2.05-.397 3.374-.397 1.323-1.19 2.249-.728.926-1.919 1.587-1.124.596-2.646 1.19 1.456.596 2.58 1.324 1.19.727 1.985 1.653.793.926 1.19 2.25.397 1.256.397 2.976v6.482q0 .992.33 1.985.398.992 1.324 1.653.926.662 2.447.794 1.588.198 4.035-.463v8.731q-4.961.662-8.202.066-3.175-.595-5.093-2.116-1.919-1.456-2.712-3.77-.728-2.25-.728-4.962v-6.945q0-3.175-1.918-4.366-1.918-1.19-6.218-1.124v-8.665q4.763 0 6.416-1.786 1.72-1.786 1.72-5.49v-6.945q0-2.448.992-4.432.992-2.05 3.043-3.308 2.05-1.256 5.16-1.653 3.174-.397 7.54.463zm3.043 19.579q0-3.44 1.124-6.416 1.125-2.976 3.043-5.16 1.984-2.248 4.63-3.505 2.646-1.323 5.689-1.323 2.976 0 5.49 1.257 2.513 1.257 4.365 3.373v-4.498h8.269v32.412h-8.269v-4.498q-1.852 2.183-4.365 3.44-2.514 1.19-5.49 1.19-3.043 0-5.689-1.257-2.646-1.323-4.63-3.505-1.918-2.183-3.043-5.16-1.124-2.976-1.124-6.35zm8.268 0q0 1.654.595 3.11.596 1.454 1.654 2.579 1.124 1.058 2.513 1.72 1.456.595 3.175.595 1.654 0 3.11-.595 1.454-.662 2.513-1.72 1.124-1.125 1.72-2.58.661-1.455.661-3.109 0-1.653-.661-3.109-.596-1.52-1.72-2.58-1.059-1.124-2.514-1.719-1.455-.662-3.109-.662-1.72 0-3.175.662-1.389.595-2.513 1.72-1.058 1.058-1.654 2.58-.595 1.455-.595 3.108zm28.31-28.31q4.366-.86 7.475-.463 3.175.397 5.225 1.653 2.05 1.257 3.043 3.308.992 1.984.992 4.432v6.945q0 3.704 1.654 5.49 1.72 1.786 6.482 1.786v8.665q-4.3-.066-6.218 1.124-1.918 1.191-1.918 4.366v6.945q0 2.712-.794 4.961-.727 2.315-2.645 3.77-1.919 1.522-5.16 2.117-3.175.596-8.136-.066v-8.731q2.448.661 3.97.463 1.587-.132 2.513-.794.926-.661 1.256-1.653.397-.993.397-1.985v-6.482q0-1.72.397-2.977.397-1.323 1.19-2.249.795-.926 1.919-1.653 1.19-.728 2.646-1.323-1.522-.595-2.712-1.19-1.125-.662-1.918-1.588-.728-.926-1.125-2.25-.397-1.322-.397-3.373v-6.548q0-.992-.33-1.984-.331-1.059-1.257-1.72-.926-.728-2.514-.86-1.587-.199-4.035.595z" style="font-family:BunyaW03-Bold;-inkscape-font-specification:BunyaW03-Bold" transform="rotate(-40 5.337 -92.527)" aria-label="{a}"/></g><g style="font-size:66.1458px;line-height:1.25;opacity:1;stroke-width:.264583"><path d="M63.753 203.793q-2.513-.793-4.1-.595-1.522.132-2.448.86-.926.661-1.257 1.72-.33.992-.33 1.984v6.549q0 2.05-.397 3.373-.397 1.323-1.191 2.249-.728.926-1.918 1.587-1.125.596-2.646 1.191 1.455.595 2.58 1.323 1.19.728 1.984 1.654.794.926 1.19 2.249.397 1.256.397 2.976v6.482q0 .993.331 1.985.397.992 1.323 1.654.926.661 2.447.793 1.588.199 4.035-.463v8.731q-4.96.662-8.202.067-3.175-.596-5.093-2.117-1.918-1.455-2.712-3.77-.728-2.25-.728-4.961v-6.946q0-3.175-1.918-4.365-1.918-1.19-6.217-1.125v-8.665q4.762 0 6.416-1.786 1.72-1.786 1.72-5.49v-6.945q0-2.448.992-4.432.992-2.05 3.042-3.307 2.05-1.257 5.16-1.654 3.175-.397 7.54.463zm3.043 19.58q0-3.44 1.125-6.417 1.124-2.976 3.042-5.159 1.985-2.249 4.63-3.506 2.646-1.323 5.689-1.323 2.977 0 5.49 1.257 2.514 1.257 4.366 3.374V207.1h8.268v32.411h-8.268v-4.498q-1.852 2.183-4.366 3.44-2.513 1.19-5.49 1.19-3.043 0-5.688-1.256-2.646-1.323-4.63-3.506-1.919-2.183-3.043-5.16-1.125-2.976-1.125-6.35zm8.268 0q0 1.653.596 3.108.595 1.456 1.653 2.58 1.125 1.058 2.514 1.72 1.455.595 3.175.595 1.653 0 3.109-.595 1.455-.662 2.513-1.72 1.125-1.124 1.72-2.58.661-1.455.661-3.108 0-1.654-.661-3.11-.595-1.52-1.72-2.579-1.058-1.124-2.513-1.72-1.456-.661-3.11-.661-1.719 0-3.174.661-1.39.596-2.514 1.72-1.058 1.058-1.653 2.58-.596 1.455-.596 3.109zm28.311-28.311q4.365-.86 7.474-.463 3.175.397 5.226 1.654 2.05 1.257 3.042 3.307.993 1.984.993 4.432v6.945q0 3.704 1.653 5.49 1.72 1.786 6.483 1.786v8.665q-4.3-.066-6.218 1.125-1.918 1.19-1.918 4.365v6.946q0 2.712-.794 4.96-.728 2.316-2.646 3.771-1.918 1.521-5.16 2.117-3.174.595-8.135-.066v-8.732q2.447.662 3.968.463 1.588-.132 2.514-.793.926-.662 1.257-1.654.397-.992.397-1.984v-6.483q0-1.72.397-2.976.396-1.323 1.19-2.25.794-.925 1.918-1.653 1.191-.728 2.646-1.323-1.521-.595-2.712-1.19-1.124-.662-1.918-1.588-.728-.926-1.124-2.249-.397-1.323-.397-3.373v-6.549q0-.992-.331-1.984-.33-1.058-1.257-1.72-.926-.728-2.513-.86-1.588-.198-4.035.595z" style="font-family:BunyaW03-Bold;-inkscape-font-specification:BunyaW03-Bold" transform="rotate(-40 5.337 -92.527)" aria-label="{a}"/></g><g style="font-size:66.1458px;line-height:1.25;opacity:1;stroke-width:.264583"><path d="M164.965 205.598q-2.514-.794-4.101-.595-1.521.132-2.447.86-.926.661-1.257 1.72-.33.992-.33 1.984v6.548q0 2.05-.398 3.374-.397 1.323-1.19 2.249-.728.926-1.919 1.587-1.124.595-2.646 1.19 1.456.596 2.58 1.324 1.19.727 1.985 1.653.793.926 1.19 2.25.397 1.256.397 2.976v6.482q0 .992.33 1.984.398.993 1.324 1.654.926.662 2.447.794 1.588.198 4.035-.463v8.731q-4.96.661-8.202.066-3.175-.595-5.093-2.117-1.919-1.455-2.712-3.77-.728-2.249-.728-4.96v-6.946q0-3.175-1.918-4.366-1.918-1.19-6.218-1.124v-8.665q4.763 0 6.416-1.786 1.72-1.786 1.72-5.49v-6.946q0-2.447.992-4.431.992-2.05 3.043-3.308 2.05-1.256 5.16-1.653 3.174-.397 7.54.463zm3.043 19.579q0-3.44 1.124-6.416 1.125-2.977 3.043-5.16 1.984-2.248 4.63-3.505 2.646-1.323 5.689-1.323 2.976 0 5.49 1.257 2.513 1.257 4.365 3.373v-4.498h8.269v32.412h-8.269v-4.498q-1.852 2.183-4.365 3.44-2.514 1.19-5.49 1.19-3.043 0-5.689-1.257-2.646-1.323-4.63-3.505-1.918-2.183-3.043-5.16-1.124-2.976-1.124-6.35zm8.268 0q0 1.654.595 3.109.596 1.455 1.654 2.58 1.124 1.058 2.513 1.72 1.456.595 3.175.595 1.654 0 3.11-.596 1.455-.661 2.513-1.72 1.124-1.124 1.72-2.579.661-1.455.661-3.109t-.661-3.109q-.596-1.521-1.72-2.58-1.058-1.124-2.514-1.72-1.455-.66-3.109-.66-1.72 0-3.175.66-1.389.596-2.513 1.72-1.058 1.059-1.654 2.58-.595 1.455-.595 3.11zm28.31-28.31q4.366-.86 7.475-.463 3.175.397 5.225 1.653 2.05 1.257 3.043 3.308.992 1.984.992 4.431v6.946q0 3.704 1.654 5.49 1.72 1.786 6.482 1.786v8.665q-4.3-.066-6.218 1.124-1.918 1.191-1.918 4.366v6.945q0 2.712-.794 4.961-.727 2.315-2.645 3.77-1.919 1.522-5.16 2.117-3.175.596-8.136-.066v-8.731q2.448.661 3.97.463 1.587-.132 2.513-.794.926-.661 1.256-1.654.397-.992.397-1.984v-6.482q0-1.72.397-2.977.397-1.323 1.19-2.249.795-.926 1.919-1.653 1.19-.728 2.646-1.323-1.522-.596-2.712-1.19-1.125-.662-1.918-1.588-.728-.926-1.125-2.25-.397-1.322-.397-3.373v-6.548q0-.992-.33-1.985-.331-1.058-1.257-1.72-.926-.727-2.514-.86-1.587-.198-4.035.596z" style="font-family:BunyaW03-Bold;-inkscape-font-specification:BunyaW03-Bold" transform="rotate(-40 5.337 -92.527)" aria-label="{a}"/></g><g style="font-size:66.1458px;line-height:1.25;opacity:1;stroke-width:.264583"><path d="M-202.289 54.934q-2.513-.794-4.1-.596-1.522.133-2.448.86-.926.662-1.257 1.72-.33.992-.33 1.984v6.549q0 2.05-.397 3.373-.397 1.323-1.191 2.25-.728.925-1.918 1.587-1.125.595-2.646 1.19 1.455.596 2.58 1.323 1.19.728 1.984 1.654.794.926 1.19 2.249.397 1.257.397 2.976v6.483q0 .992.331 1.984.397.992 1.323 1.654.926.661 2.447.793 1.588.199 4.035-.463v8.732q-4.96.661-8.202.066-3.175-.595-5.093-2.117-1.918-1.455-2.712-3.77-.728-2.249-.728-4.961v-6.945q0-3.175-1.918-4.366-1.918-1.19-6.217-1.124v-8.666q4.762 0 6.416-1.785 1.72-1.786 1.72-5.49v-6.946q0-2.447.992-4.432.992-2.05 3.042-3.307 2.05-1.257 5.16-1.654 3.175-.396 7.54.463zm3.043 19.579q0-3.44 1.125-6.416 1.124-2.977 3.042-5.16 1.985-2.249 4.63-3.505 2.646-1.323 5.689-1.323 2.977 0 5.49 1.256 2.514 1.257 4.366 3.374V58.24h8.268v32.411h-8.268v-4.498q-1.852 2.183-4.366 3.44-2.513 1.19-5.49 1.19-3.043 0-5.689-1.256-2.645-1.323-4.63-3.506-1.918-2.183-3.042-5.16-1.125-2.976-1.125-6.35zm8.268 0q0 1.653.596 3.109.595 1.455 1.653 2.58 1.125 1.058 2.514 1.72 1.455.594 3.175.594 1.653 0 3.109-.595 1.455-.661 2.513-1.72 1.125-1.124 1.72-2.58.661-1.455.661-3.108 0-1.654-.661-3.11-.595-1.52-1.72-2.579-1.058-1.124-2.513-1.72-1.456-.661-3.11-.661-1.719 0-3.174.661-1.39.596-2.514 1.72-1.058 1.059-1.653 2.58-.596 1.455-.596 3.109zm28.311-28.311q4.365-.86 7.474-.463 3.175.397 5.226 1.654 2.05 1.257 3.042 3.307.993 1.985.993 4.432v6.945q0 3.705 1.653 5.49 1.72 1.786 6.483 1.786v8.666q-4.3-.067-6.218 1.124-1.918 1.19-1.918 4.366v6.945q0 2.712-.794 4.96-.728 2.316-2.646 3.771-1.918 1.522-5.16 2.117-3.174.595-8.135-.066v-8.732q2.447.662 3.968.463 1.588-.132 2.514-.793.926-.662 1.257-1.654.397-.992.397-1.984v-6.483q0-1.72.397-2.976.396-1.323 1.19-2.25.794-.925 1.918-1.653 1.191-.727 2.646-1.323-1.521-.595-2.712-1.19-1.124-.662-1.918-1.588-.728-.926-1.124-2.249-.397-1.323-.397-3.373v-6.549q0-.992-.331-1.984-.33-1.058-1.257-1.72-.926-.727-2.513-.86-1.588-.198-4.035.596z" style="font-family:BunyaW03-Bold;-inkscape-font-specification:BunyaW03-Bold" transform="rotate(-40 5.337 -92.527)" aria-label="{a}"/></g><g style="font-size:66.1458px;line-height:1.25;opacity:1;stroke-width:.264583"><path d="M-98.768 55.324q-2.514-.794-4.101-.595-1.522.132-2.448.86-.926.661-1.256 1.72-.331.992-.331 1.984v6.548q0 2.05-.397 3.374-.397 1.323-1.19 2.249-.728.926-1.919 1.587-1.124.595-2.646 1.19 1.455.596 2.58 1.324 1.19.727 1.984 1.653t1.191 2.25q.397 1.256.397 2.976v6.482q0 .992.33 1.984.397.993 1.323 1.654.927.662 2.448.794 1.587.198 4.035-.463v8.731q-4.961.662-8.202.066-3.175-.595-5.094-2.117-1.918-1.455-2.712-3.77-.727-2.249-.727-4.96v-6.946q0-3.175-1.918-4.366-1.919-1.19-6.218-1.124v-8.665q4.762 0 6.416-1.786 1.72-1.786 1.72-5.49v-6.946q0-2.447.992-4.431.992-2.05 3.043-3.308 2.05-1.256 5.16-1.653 3.174-.397 7.54.463zm3.043 19.579q0-3.44 1.124-6.416 1.124-2.977 3.043-5.16 1.984-2.248 4.63-3.505 2.646-1.323 5.688-1.323 2.977 0 5.49 1.257 2.514 1.257 4.366 3.373v-4.498h8.268v32.412h-8.268v-4.498q-1.852 2.183-4.365 3.44-2.514 1.19-5.49 1.19-3.043 0-5.69-1.257-2.645-1.323-4.63-3.505-1.918-2.183-3.042-5.16-1.124-2.976-1.124-6.35zm8.268 0q0 1.654.595 3.109t1.654 2.58q1.124 1.058 2.513 1.72 1.455.595 3.175.595 1.654 0 3.11-.596 1.454-.661 2.513-1.72 1.124-1.124 1.72-2.579.66-1.455.66-3.109 0-1.653-.66-3.109-.596-1.521-1.72-2.58-1.059-1.124-2.514-1.72-1.455-.66-3.109-.66-1.72 0-3.175.66-1.389.596-2.513 1.72-1.059 1.059-1.654 2.58-.595 1.456-.595 3.11zm28.31-28.31q4.366-.86 7.475-.463 3.175.397 5.225 1.653 2.05 1.257 3.043 3.308.992 1.984.992 4.431v6.946q0 3.704 1.654 5.49 1.72 1.786 6.482 1.786v8.665q-4.3-.066-6.218 1.124-1.918 1.191-1.918 4.366v6.945q0 2.712-.794 4.961-.727 2.315-2.646 3.77-1.918 1.522-5.159 2.117-3.175.596-8.136-.066v-8.731q2.448.661 3.969.463 1.587-.132 2.513-.794.926-.661 1.257-1.654.397-.992.397-1.984v-6.482q0-1.72.397-2.977.397-1.323 1.19-2.249.794-.926 1.919-1.653 1.19-.728 2.646-1.323-1.522-.596-2.712-1.19-1.125-.662-1.919-1.588-.727-.926-1.124-2.25-.397-1.322-.397-3.373v-6.548q0-.992-.33-1.985-.331-1.058-1.257-1.72-.926-.727-2.514-.86-1.587-.198-4.035.596z" style="font-family:BunyaW03-Bold;-inkscape-font-specification:BunyaW03-Bold" transform="rotate(-40 5.337 -92.527)" aria-label="{a}"/></g><g style="font-size:66.1458px;line-height:1.25;opacity:1;stroke-width:.264583"><path d="M5.41 55.583q-2.513-.793-4.1-.595-1.522.132-2.448.86-.926.661-1.257 1.72-.33.992-.33 1.984V66.1q0 2.051-.398 3.374-.397 1.323-1.19 2.249-.728.926-1.918 1.587-1.125.596-2.646 1.191 1.455.595 2.58 1.323 1.19.728 1.984 1.654.793.926 1.19 2.249.397 1.256.397 2.976v6.482q0 .993.331 1.985.397.992 1.323 1.653.926.662 2.447.794 1.588.199 4.035-.463v8.731q-4.96.662-8.202.066-3.175-.595-5.093-2.116-1.918-1.455-2.712-3.77-.728-2.25-.728-4.961v-6.946q0-3.175-1.918-4.365-1.918-1.191-6.218-1.125v-8.665q4.763 0 6.417-1.786 1.72-1.786 1.72-5.49v-6.945q0-2.448.991-4.432.993-2.05 3.043-3.307 2.05-1.257 5.16-1.654 3.175-.397 7.54.463zm3.043 19.579q0-3.44 1.124-6.416 1.125-2.976 3.043-5.16 1.984-2.248 4.63-3.505 2.646-1.323 5.689-1.323 2.976 0 5.49 1.257 2.513 1.257 4.366 3.374V58.89h8.268v32.411h-8.268v-4.498q-1.853 2.183-4.366 3.44-2.514 1.19-5.49 1.19-3.043 0-5.689-1.256-2.646-1.323-4.63-3.506-1.918-2.183-3.043-5.16-1.124-2.976-1.124-6.35zm8.268 0q0 1.654.595 3.11.596 1.455 1.654 2.579 1.125 1.058 2.514 1.72 1.455.595 3.175.595 1.653 0 3.108-.595 1.456-.662 2.514-1.72 1.125-1.124 1.72-2.58.661-1.455.661-3.109 0-1.653-.661-3.108-.595-1.522-1.72-2.58-1.058-1.125-2.514-1.72-1.455-.661-3.108-.661-1.72 0-3.175.661-1.39.595-2.514 1.72-1.058 1.058-1.654 2.58-.595 1.455-.595 3.108zm28.311-28.31q4.365-.86 7.474-.463 3.175.397 5.226 1.654 2.05 1.256 3.042 3.307.992 1.984.992 4.432v6.945q0 3.704 1.654 5.49 1.72 1.786 6.482 1.786v8.665q-4.3-.066-6.217 1.125-1.919 1.19-1.919 4.365v6.946q0 2.712-.793 4.96-.728 2.316-2.646 3.77-1.918 1.522-5.16 2.118-3.175.595-8.135-.067v-8.73q2.447.66 3.968.462 1.588-.132 2.514-.794.926-.661 1.257-1.653.396-.992.396-1.985v-6.482q0-1.72.397-2.976.397-1.323 1.191-2.25.794-.925 1.918-1.653 1.19-.728 2.646-1.323-1.521-.595-2.712-1.19-1.124-.662-1.918-1.588-.728-.926-1.125-2.249t-.397-3.373v-6.549q0-.992-.33-1.984-.331-1.059-1.257-1.72-.926-.728-2.514-.86-1.587-.198-4.034.595z" style="font-family:BunyaW03-Bold;-inkscape-font-specification:BunyaW03-Bold" transform="rotate(-40 5.337 -92.527)" aria-label="{a}"/></g><g style="font-size:66.1458px;line-height:1.25;opacity:1;stroke-width:.264583"><path d="M-127.627-16.359q-2.513-.793-4.1-.595-1.522.132-2.448.86-.926.661-1.257 1.72-.33.992-.33 1.984v6.549q0 2.05-.398 3.373-.396 1.323-1.19 2.249-.728.926-1.918 1.588-1.125.595-2.646 1.19 1.455.595 2.58 1.323 1.19.728 1.984 1.654.794.926 1.19 2.249.397 1.256.397 2.976v6.482q0 .993.331 1.985.397.992 1.323 1.654.926.661 2.447.793 1.588.199 4.035-.463v8.731q-4.96.662-8.202.067-3.175-.596-5.093-2.117-1.918-1.455-2.712-3.77-.728-2.25-.728-4.961v-6.946q0-3.175-1.918-4.365-1.918-1.19-6.218-1.125v-8.665q4.763 0 6.417-1.786 1.72-1.786 1.72-5.49v-6.945q0-2.448.992-4.432.992-2.05 3.042-3.307 2.05-1.257 5.16-1.654 3.175-.397 7.54.463zm3.043 19.579q0-3.439 1.125-6.416 1.124-2.976 3.042-5.159 1.985-2.249 4.63-3.506 2.646-1.323 5.689-1.323 2.977 0 5.49 1.257 2.514 1.257 4.366 3.374v-4.498h8.268V19.36h-8.268v-4.498q-1.852 2.183-4.366 3.44-2.513 1.19-5.49 1.19-3.043 0-5.689-1.256-2.645-1.323-4.63-3.506-1.918-2.183-3.042-5.16-1.125-2.976-1.125-6.35zm8.268 0q0 1.654.596 3.11.595 1.455 1.653 2.58 1.125 1.057 2.514 1.719 1.455.595 3.175.595 1.653 0 3.109-.595 1.455-.662 2.513-1.72 1.125-1.124 1.72-2.58.661-1.455.661-3.108 0-1.654-.661-3.11-.595-1.52-1.72-2.579-1.058-1.124-2.513-1.72-1.456-.661-3.11-.661-1.719 0-3.174.661-1.39.596-2.514 1.72-1.058 1.058-1.653 2.58-.596 1.455-.596 3.109zm28.311-28.31q4.365-.86 7.474-.463 3.175.397 5.226 1.654 2.05 1.257 3.042 3.307.993 1.984.993 4.432v6.945q0 3.704 1.653 5.49 1.72 1.786 6.482 1.786v8.665q-4.299-.066-6.217 1.125-1.918 1.19-1.918 4.365v6.946q0 2.712-.794 4.96-.728 2.316-2.646 3.771-1.918 1.521-5.16 2.117-3.174.595-8.135-.067v-8.73q2.447.66 3.968.462 1.588-.132 2.514-.793.926-.662 1.257-1.654.397-.992.397-1.985v-6.482q0-1.72.396-2.976.397-1.323 1.191-2.25.794-.925 1.918-1.653 1.19-.728 2.646-1.323-1.521-.595-2.712-1.19-1.124-.662-1.918-1.588-.728-.926-1.125-2.249-.396-1.323-.396-3.373v-6.549q0-.992-.331-1.984-.33-1.059-1.257-1.72-.926-.728-2.513-.86-1.588-.198-4.035.595z" style="font-family:BunyaW03-Bold;-inkscape-font-specification:BunyaW03-Bold" transform="rotate(-40 5.337 -92.527)" aria-label="{a}"/></g><g style="font-size:66.1458px;line-height:1.25;opacity:1;stroke-width:.264583"><path d="M-24.53-15.249q-2.514-.794-4.101-.595-1.521.132-2.447.86-.927.661-1.257 1.72-.331.992-.331 1.984v6.548q0 2.05-.397 3.374-.397 1.323-1.19 2.249-.728.926-1.919 1.587-1.124.596-2.646 1.19 1.456.596 2.58 1.324 1.19.727 1.985 1.653.793.927 1.19 2.25.397 1.256.397 2.976v6.482q0 .992.33 1.985.398.992 1.324 1.653.926.662 2.447.794 1.588.199 4.035-.463v8.731q-4.961.662-8.202.066-3.175-.595-5.093-2.116-1.919-1.455-2.712-3.77-.728-2.25-.728-4.961v-6.946q0-3.175-1.918-4.365-1.918-1.191-6.218-1.125V-.829q4.763 0 6.416-1.786 1.72-1.786 1.72-5.49v-6.945q0-2.448.992-4.432.992-2.05 3.043-3.307 2.05-1.257 5.16-1.654 3.174-.397 7.54.463zm3.043 19.579q0-3.44 1.124-6.416 1.125-2.976 3.043-5.16 1.984-2.248 4.63-3.505 2.646-1.323 5.689-1.323 2.976 0 5.49 1.257Q1.002-9.56 2.854-7.444v-4.497h8.269V20.47H2.854v-4.498q-1.852 2.183-4.365 3.44-2.514 1.19-5.49 1.19-3.043 0-5.689-1.257-2.646-1.322-4.63-3.505-1.918-2.183-3.043-5.16-1.124-2.976-1.124-6.35zm8.268 0q0 1.654.595 3.11.596 1.454 1.654 2.579 1.124 1.058 2.513 1.72 1.456.595 3.175.595 1.654 0 3.11-.595 1.454-.662 2.513-1.72 1.124-1.125 1.72-2.58.661-1.455.661-3.109 0-1.653-.661-3.108Q1.465-.3.34-1.358q-1.059-1.125-2.514-1.72-1.455-.661-3.109-.661-1.72 0-3.175.661-1.389.595-2.513 1.72-1.058 1.058-1.654 2.58-.595 1.455-.595 3.108zm28.31-28.31q4.366-.86 7.475-.463 3.175.397 5.225 1.654 2.05 1.256 3.043 3.307.992 1.984.992 4.432v6.945q0 3.704 1.654 5.49Q35.2-.829 39.962-.829v8.665q-4.3-.066-6.218 1.125-1.918 1.19-1.918 4.365v6.946q0 2.712-.794 4.96-.727 2.316-2.645 3.77-1.919 1.522-5.16 2.117-3.175.596-8.136-.066v-8.73q2.448.66 3.969.462 1.588-.132 2.514-.794.926-.661 1.256-1.653.397-.993.397-1.985v-6.482q0-1.72.397-2.977.397-1.322 1.19-2.249.794-.926 1.919-1.653 1.19-.728 2.646-1.323-1.522-.595-2.712-1.19-1.125-.662-1.918-1.588-.728-.926-1.125-2.25-.397-1.322-.397-3.373v-6.548q0-.992-.33-1.984-.331-1.059-1.257-1.72-.926-.728-2.514-.86-1.587-.199-4.035.595z" style="font-family:BunyaW03-Bold;-inkscape-font-specification:BunyaW03-Bold" transform="rotate(-40 5.337 -92.527)" aria-label="{a}"/></g><g style="font-size:66.1458px;line-height:1.25;opacity:1;stroke-width:.264583"><path d="M-55.826 277.866q-2.514-.794-4.101-.595-1.522.132-2.448.86-.926.661-1.257 1.72-.33.992-.33 1.984v6.548q0 2.05-.397 3.374-.397 1.323-1.19 2.249-.728.926-1.919 1.587-1.125.595-2.646 1.19 1.455.596 2.58 1.324 1.19.727 1.984 1.653t1.19 2.25q.398 1.256.398 2.976v6.482q0 .992.33 1.985.397.992 1.323 1.653.926.662 2.448.794 1.587.198 4.035-.463v8.731q-4.961.662-8.202.066-3.175-.595-5.094-2.116-1.918-1.456-2.712-3.77-.727-2.25-.727-4.962v-6.945q0-3.175-1.919-4.366-1.918-1.19-6.217-1.124v-8.665q4.762 0 6.416-1.786 1.72-1.786 1.72-5.49v-6.945q0-2.448.992-4.432.992-2.05 3.043-3.308 2.05-1.256 5.159-1.653 3.175-.397 7.54.463zm3.042 19.579q0-3.44 1.125-6.416 1.124-2.976 3.043-5.16 1.984-2.248 4.63-3.505 2.646-1.323 5.688-1.323 2.977 0 5.49 1.257 2.514 1.257 4.366 3.373v-4.498h8.268v32.412h-8.268v-4.498q-1.852 2.183-4.366 3.44-2.513 1.19-5.49 1.19-3.042 0-5.688-1.257-2.646-1.323-4.63-3.505-1.919-2.183-3.043-5.16-1.125-2.976-1.125-6.35zm8.269 0q0 1.654.595 3.11.595 1.454 1.654 2.579 1.124 1.058 2.513 1.72 1.455.595 3.175.595 1.654 0 3.109-.595 1.455-.662 2.513-1.72 1.125-1.125 1.72-2.58.662-1.455.662-3.109 0-1.653-.662-3.109-.595-1.52-1.72-2.58-1.058-1.124-2.513-1.72-1.455-.66-3.109-.66-1.72 0-3.175.66-1.389.596-2.513 1.72-1.059 1.06-1.654 2.58-.595 1.456-.595 3.11zm28.31-28.31q4.366-.86 7.474-.463 3.175.397 5.226 1.653 2.05 1.257 3.043 3.308.992 1.984.992 4.432v6.945q0 3.704 1.654 5.49 1.72 1.786 6.482 1.786v8.665q-4.3-.066-6.218 1.124Q.53 303.266.53 306.441v6.945q0 2.712-.794 4.961-.727 2.315-2.646 3.77-1.918 1.522-5.16 2.117-3.174.596-8.135-.066v-8.731q2.447.661 3.969.463 1.587-.132 2.513-.794.926-.661 1.257-1.653.397-.993.397-1.985v-6.482q0-1.72.397-2.977.397-1.323 1.19-2.249.794-.926 1.919-1.653 1.19-.728 2.645-1.323-1.52-.595-2.712-1.19-1.124-.662-1.918-1.588-.727-.926-1.124-2.25-.397-1.322-.397-3.373v-6.548q0-.992-.33-1.984-.332-1.059-1.258-1.72-.926-.728-2.513-.86-1.588-.199-4.035.595z" style="font-family:BunyaW03-Bold;-inkscape-font-specification:BunyaW03-Bold" transform="rotate(-40 5.337 -92.527)" aria-label="{a}"/></g><g style="font-size:66.1458px;line-height:1.25;opacity:1;stroke-width:.264583"><path d="M47.694 278.256q-2.513-.793-4.101-.595-1.521.132-2.447.86-.926.662-1.257 1.72-.33.992-.33 1.984v6.549q0 2.05-.398 3.373-.397 1.323-1.19 2.249-.728.926-1.919 1.588-1.124.595-2.645 1.19 1.455.595 2.58 1.323 1.19.728 1.984 1.654.793.926 1.19 2.249.397 1.256.397 2.976v6.483q0 .992.33 1.984.398.992 1.324 1.654.926.661 2.447.793 1.588.199 4.035-.463v8.732q-4.96.661-8.202.066-3.175-.596-5.093-2.117-1.918-1.455-2.712-3.77-.728-2.25-.728-4.961v-6.946q0-3.175-1.918-4.365-1.918-1.19-6.218-1.125v-8.665q4.763 0 6.416-1.786 1.72-1.786 1.72-5.49v-6.945q0-2.448.992-4.432.993-2.05 3.043-3.307 2.05-1.257 5.16-1.654 3.174-.397 7.54.463zm3.043 19.58q0-3.44 1.124-6.417 1.125-2.976 3.043-5.159 1.984-2.249 4.63-3.506 2.646-1.323 5.689-1.323 2.976 0 5.49 1.257 2.513 1.257 4.365 3.374v-4.498h8.269v32.411h-8.269v-4.498q-1.852 2.183-4.365 3.44-2.514 1.19-5.49 1.19-3.043 0-5.689-1.256-2.646-1.323-4.63-3.506-1.918-2.183-3.043-5.16-1.124-2.976-1.124-6.35zm8.268 0q0 1.653.595 3.108.596 1.456 1.654 2.58 1.124 1.058 2.514 1.72 1.455.595 3.175.595 1.653 0 3.108-.595 1.456-.662 2.514-1.72 1.124-1.124 1.72-2.58.661-1.455.661-3.108 0-1.654-.661-3.11-.596-1.52-1.72-2.579-1.058-1.124-2.514-1.72-1.455-.661-3.108-.661-1.72 0-3.175.661-1.39.596-2.514 1.72-1.058 1.058-1.654 2.58-.595 1.455-.595 3.109zm28.31-28.311q4.366-.86 7.475-.463 3.175.397 5.225 1.654t3.043 3.307q.992 1.985.992 4.432v6.945q0 3.704 1.654 5.49 1.72 1.786 6.482 1.786v8.665q-4.3-.066-6.217 1.125-1.919 1.19-1.919 4.365v6.946q0 2.712-.793 4.96-.728 2.316-2.646 3.771-1.919 1.521-5.16 2.117-3.175.595-8.136-.066v-8.732q2.448.662 3.97.463 1.587-.132 2.513-.793.926-.662 1.256-1.654.397-.992.397-1.984v-6.483q0-1.72.397-2.976.397-1.323 1.19-2.25.795-.925 1.92-1.653 1.19-.727 2.645-1.323-1.521-.595-2.712-1.19-1.125-.662-1.918-1.588-.728-.926-1.125-2.249t-.397-3.373v-6.549q0-.992-.33-1.984-.331-1.058-1.257-1.72-.926-.728-2.514-.86-1.587-.198-4.035.596z" style="font-family:BunyaW03-Bold;-inkscape-font-specification:BunyaW03-Bold" transform="rotate(-40 5.337 -92.527)" aria-label="{a}"/></g><g style="font-size:66.1458px;line-height:1.25;opacity:1;stroke-width:.264583"><path d="M151.872 278.516q-2.513-.794-4.1-.596-1.522.133-2.448.86-.926.662-1.257 1.72-.33.992-.33 1.985v6.548q0 2.05-.397 3.373-.397 1.323-1.191 2.25-.728.925-1.918 1.587-1.125.595-2.646 1.19 1.455.596 2.58 1.323 1.19.728 1.984 1.654.794.926 1.19 2.249.398 1.257.398 2.977v6.482q0 .992.33 1.984.397.992 1.323 1.654.926.661 2.448.794 1.587.198 4.034-.463v8.73q-4.96.662-8.202.067-3.175-.595-5.093-2.117-1.918-1.455-2.712-3.77-.727-2.249-.727-4.961v-6.945q0-3.175-1.919-4.366-1.918-1.19-6.217-1.124v-8.666q4.762 0 6.416-1.785 1.72-1.786 1.72-5.49v-6.946q0-2.447.992-4.432.992-2.05 3.042-3.307 2.051-1.257 5.16-1.654 3.175-.396 7.54.463zm3.043 19.579q0-3.44 1.125-6.416 1.124-2.977 3.042-5.16 1.985-2.249 4.63-3.505 2.646-1.323 5.69-1.323 2.976 0 5.49 1.257 2.513 1.256 4.365 3.373v-4.498h8.268v32.412h-8.268v-4.498q-1.852 2.182-4.366 3.44-2.513 1.19-5.49 1.19-3.043 0-5.688-1.257-2.646-1.323-4.63-3.506-1.919-2.183-3.043-5.16-1.125-2.976-1.125-6.35zm8.268 0q0 1.654.596 3.109.595 1.455 1.653 2.58 1.125 1.058 2.514 1.72 1.455.595 3.175.595 1.654 0 3.109-.596 1.455-.661 2.513-1.72 1.125-1.124 1.72-2.58.662-1.454.662-3.108 0-1.654-.662-3.109-.595-1.521-1.72-2.58-1.058-1.124-2.513-1.72-1.455-.66-3.11-.66-1.719 0-3.174.66-1.39.596-2.514 1.72-1.058 1.059-1.653 2.58-.596 1.455-.596 3.109zm28.311-28.31q4.365-.86 7.474-.464 3.175.397 5.226 1.654 2.05 1.257 3.042 3.307.993 1.985.993 4.432v6.946q0 3.704 1.653 5.49 1.72 1.786 6.483 1.786v8.665q-4.3-.066-6.218 1.124-1.918 1.19-1.918 4.366v6.945q0 2.712-.794 4.961-.728 2.315-2.646 3.77-1.918 1.522-5.16 2.117-3.174.595-8.135-.066v-8.731q2.447.661 3.969.463 1.587-.133 2.513-.794.926-.662 1.257-1.654.397-.992.397-1.984v-6.482q0-1.72.397-2.977.396-1.323 1.19-2.249.794-.926 1.918-1.654 1.191-.727 2.646-1.322-1.521-.596-2.712-1.191-1.124-.662-1.918-1.588-.728-.926-1.124-2.249-.397-1.322-.397-3.373v-6.548q0-.993-.331-1.985-.33-1.058-1.257-1.72-.926-.727-2.513-.86-1.588-.198-4.035.596z" style="font-family:BunyaW03-Bold;-inkscape-font-specification:BunyaW03-Bold" transform="rotate(-40 5.337 -92.527)" aria-label="{a}"/></g><g style="font-size:66.1458px;line-height:1.25;opacity:1;stroke-width:.264583"><path d="M253.084 280.32q-2.513-.793-4.101-.595-1.521.132-2.447.86-.926.661-1.257 1.72-.33.992-.33 1.984v6.549q0 2.05-.398 3.373-.397 1.323-1.19 2.249-.728.926-1.919 1.587-1.124.596-2.645 1.191 1.455.595 2.58 1.323 1.19.728 1.984 1.654.793.926 1.19 2.249.397 1.256.397 2.976v6.482q0 .993.33 1.985.398.992 1.324 1.653.926.662 2.447.794 1.588.199 4.035-.463v8.731q-4.96.662-8.202.066-3.175-.595-5.093-2.116-1.918-1.455-2.712-3.77-.728-2.25-.728-4.961v-6.946q0-3.175-1.918-4.365-1.918-1.191-6.218-1.125v-8.665q4.763 0 6.416-1.786 1.72-1.786 1.72-5.49v-6.945q0-2.448.992-4.432.993-2.05 3.043-3.307 2.05-1.257 5.16-1.654 3.174-.397 7.54.463zm3.043 19.58q0-3.44 1.124-6.417 1.125-2.976 3.043-5.159 1.984-2.249 4.63-3.506 2.646-1.323 5.689-1.323 2.976 0 5.49 1.257 2.513 1.257 4.365 3.374v-4.498h8.269v32.411h-8.269v-4.498q-1.852 2.183-4.365 3.44-2.514 1.19-5.49 1.19-3.043 0-5.689-1.256-2.646-1.323-4.63-3.506-1.918-2.183-3.043-5.16-1.124-2.976-1.124-6.35zm8.268 0q0 1.653.595 3.108.596 1.456 1.654 2.58 1.124 1.058 2.514 1.72 1.455.595 3.175.595 1.653 0 3.108-.595 1.456-.662 2.514-1.72 1.124-1.124 1.72-2.58.661-1.455.661-3.109 0-1.653-.661-3.108-.596-1.522-1.72-2.58-1.058-1.125-2.514-1.72-1.455-.661-3.108-.661-1.72 0-3.175.661-1.39.595-2.514 1.72-1.058 1.058-1.654 2.58-.595 1.455-.595 3.108zm28.31-28.31q4.366-.86 7.475-.464 3.175.397 5.225 1.654 2.051 1.256 3.043 3.307.992 1.984.992 4.432v6.945q0 3.704 1.654 5.49 1.72 1.786 6.482 1.786v8.665q-4.3-.066-6.217 1.125-1.919 1.19-1.919 4.365v6.946q0 2.712-.793 4.96-.728 2.316-2.646 3.77-1.918 1.522-5.16 2.118-3.175.595-8.136-.067v-8.73q2.448.66 3.97.462 1.587-.132 2.513-.794.926-.661 1.257-1.653.396-.992.396-1.985v-6.482q0-1.72.397-2.976.397-1.323 1.19-2.25.795-.925 1.92-1.653 1.19-.728 2.645-1.323-1.521-.595-2.712-1.19-1.125-.662-1.918-1.588-.728-.926-1.125-2.249t-.397-3.373v-6.549q0-.992-.33-1.984-.331-1.059-1.257-1.72-.926-.728-2.514-.86-1.587-.198-4.035.595z" style="font-family:BunyaW03-Bold;-inkscape-font-specification:BunyaW03-Bold" transform="rotate(-40 5.337 -92.527)" aria-label="{a}"/></g><g style="font-size:66.1458px;line-height:1.25;opacity:1;stroke-width:.264583"><path d="M89.88 352.375q-2.513-.794-4.1-.596-1.522.133-2.448.86-.926.662-1.256 1.72-.331.992-.331 1.984v6.549q0 2.05-.397 3.373-.397 1.323-1.19 2.25-.728.925-1.919 1.587-1.124.595-2.646 1.19 1.455.596 2.58 1.323 1.19.728 1.984 1.654.794.926 1.19 2.249.398 1.257.398 2.976v6.483q0 .992.33 1.984.397.992 1.323 1.654.926.661 2.448.793 1.587.199 4.035-.463v8.732q-4.961.661-8.202.066-3.175-.596-5.094-2.117-1.918-1.455-2.712-3.77-.727-2.25-.727-4.961v-6.945q0-3.175-1.918-4.366-1.919-1.19-6.218-1.125v-8.665q4.762 0 6.416-1.786 1.72-1.786 1.72-5.49v-6.945q0-2.447.992-4.432.992-2.05 3.043-3.307 2.05-1.257 5.16-1.654 3.174-.397 7.54.463zm3.043 19.579q0-3.44 1.125-6.416 1.124-2.977 3.043-5.16 1.984-2.249 4.63-3.506 2.646-1.322 5.688-1.322 2.977 0 5.49 1.256 2.514 1.257 4.366 3.374v-4.498h8.268v32.411h-8.268v-4.498q-1.852 2.183-4.365 3.44-2.514 1.19-5.49 1.19-3.043 0-5.69-1.256-2.645-1.323-4.63-3.506-1.918-2.183-3.042-5.16-1.125-2.976-1.125-6.35zm8.269 0q0 1.653.595 3.109.595 1.455 1.654 2.58 1.124 1.058 2.513 1.719 1.455.595 3.175.595 1.654 0 3.11-.595 1.454-.661 2.513-1.72 1.124-1.124 1.72-2.58.66-1.455.66-3.108 0-1.654-.66-3.11-.596-1.52-1.72-2.579-1.059-1.124-2.514-1.72-1.455-.661-3.109-.661-1.72 0-3.175.661-1.389.596-2.513 1.72-1.059 1.058-1.654 2.58-.595 1.455-.595 3.109zm28.31-28.311q4.366-.86 7.475-.463 3.175.397 5.225 1.654t3.043 3.307q.992 1.985.992 4.432v6.945q0 3.704 1.654 5.49 1.72 1.786 6.482 1.786v8.665q-4.3-.066-6.218 1.125-1.918 1.19-1.918 4.366v6.945q0 2.712-.794 4.96-.727 2.316-2.646 3.771-1.918 1.521-5.159 2.117-3.175.595-8.136-.066v-8.732q2.447.662 3.969.463 1.587-.132 2.513-.793.926-.662 1.257-1.654.397-.992.397-1.984v-6.483q0-1.72.397-2.976.397-1.323 1.19-2.25.794-.925 1.919-1.653 1.19-.728 2.646-1.323-1.522-.595-2.712-1.19-1.125-.662-1.919-1.588-.727-.926-1.124-2.249-.397-1.323-.397-3.373v-6.549q0-.992-.33-1.984-.331-1.058-1.257-1.72-.927-.728-2.514-.86-1.588-.198-4.035.595z" style="font-family:BunyaW03-Bold;-inkscape-font-specification:BunyaW03-Bold" transform="rotate(-40 5.337 -92.527)" aria-label="{a}"/></g><g style="font-size:66.1458px;line-height:1.25;opacity:1;stroke-width:.264583"><path d="M193.401 352.765q-2.513-.794-4.1-.595-1.522.132-2.448.86-.926.66-1.257 1.72-.33.991-.33 1.984v6.548q0 2.05-.398 3.374-.397 1.322-1.19 2.248-.728.927-1.918 1.588-1.125.595-2.646 1.19 1.455.596 2.58 1.324 1.19.727 1.984 1.653.793.926 1.19 2.25.397 1.256.397 2.976v6.482q0 .992.331 1.984.397.993 1.323 1.654.926.661 2.447.794 1.588.198 4.035-.463v8.73q-4.96.662-8.202.067-3.175-.595-5.093-2.117-1.918-1.455-2.712-3.77-.728-2.249-.728-4.96v-6.946q0-3.175-1.918-4.366-1.918-1.19-6.218-1.124v-8.665q4.763 0 6.417-1.786 1.72-1.786 1.72-5.49v-6.946q0-2.447.991-4.431.993-2.051 3.043-3.308 2.05-1.257 5.16-1.653 3.175-.397 7.54.463zm3.043 19.579q0-3.44 1.124-6.416 1.125-2.977 3.043-5.16 1.984-2.248 4.63-3.505 2.646-1.323 5.689-1.323 2.976 0 5.49 1.257 2.513 1.256 4.366 3.373v-4.498h8.268v32.412h-8.268v-4.498q-1.853 2.183-4.366 3.44-2.514 1.19-5.49 1.19-3.043 0-5.689-1.257-2.646-1.323-4.63-3.506-1.918-2.182-3.043-5.159-1.124-2.977-1.124-6.35zm8.268 0q0 1.654.595 3.109.596 1.455 1.654 2.58 1.125 1.058 2.514 1.72 1.455.595 3.175.595 1.653 0 3.108-.596 1.456-.661 2.514-1.72 1.125-1.124 1.72-2.58.661-1.454.661-3.108 0-1.654-.661-3.109-.595-1.521-1.72-2.58-1.058-1.124-2.514-1.72-1.455-.66-3.108-.66-1.72 0-3.175.66-1.39.596-2.514 1.72-1.058 1.059-1.654 2.58-.595 1.455-.595 3.109zm28.311-28.31q4.365-.86 7.474-.463 3.175.396 5.226 1.653 2.05 1.257 3.042 3.308.992 1.984.992 4.431v6.946q0 3.704 1.654 5.49 1.72 1.786 6.482 1.786v8.665q-4.3-.066-6.217 1.124-1.919 1.19-1.919 4.366v6.945q0 2.712-.793 4.961-.728 2.315-2.646 3.77-1.918 1.522-5.16 2.117-3.175.595-8.135-.066v-8.731q2.447.661 3.968.463 1.588-.133 2.514-.794.926-.661 1.257-1.654.396-.992.396-1.984v-6.482q0-1.72.397-2.977.397-1.323 1.191-2.249.794-.926 1.918-1.653 1.19-.728 2.646-1.323-1.521-.596-2.712-1.191-1.124-.661-1.918-1.587-.728-.927-1.125-2.25-.397-1.322-.397-3.373v-6.548q0-.993-.33-1.985-.331-1.058-1.257-1.72-.926-.727-2.514-.86-1.587-.198-4.034.596z" style="font-family:BunyaW03-Bold;-inkscape-font-specification:BunyaW03-Bold" transform="rotate(-40 5.337 -92.527)" aria-label="{a}"/></g><g style="font-size:66.1458px;line-height:1.25;opacity:1;stroke-width:.264583"><path d="M156.84 423.966q-2.514-.794-4.101-.596-1.522.133-2.448.86-.926.662-1.257 1.72-.33.992-.33 1.985v6.548q0 2.05-.397 3.373-.397 1.323-1.19 2.25-.728.925-1.919 1.587-1.124.595-2.646 1.19 1.455.596 2.58 1.323 1.19.728 1.984 1.654.794.926 1.19 2.249.398 1.257.398 2.977v6.482q0 .992.33 1.984.397.992 1.323 1.654.926.661 2.448.794 1.587.198 4.035-.463v8.73q-4.961.662-8.202.067-3.175-.595-5.094-2.117-1.918-1.455-2.712-3.77-.727-2.249-.727-4.96v-6.946q0-3.175-1.918-4.366-1.919-1.19-6.218-1.124v-8.665q4.762 0 6.416-1.786 1.72-1.786 1.72-5.49v-6.946q0-2.447.992-4.432.992-2.05 3.043-3.307 2.05-1.257 5.159-1.654 3.175-.396 7.54.464zm3.042 19.579q0-3.44 1.125-6.416 1.124-2.977 3.043-5.16 1.984-2.249 4.63-3.505 2.646-1.323 5.688-1.323 2.977 0 5.49 1.257 2.514 1.256 4.366 3.373v-4.498h8.268v32.412h-8.268v-4.498q-1.852 2.182-4.366 3.44-2.513 1.19-5.49 1.19-3.042 0-5.688-1.257-2.646-1.323-4.63-3.506-1.919-2.182-3.043-5.159-1.125-2.977-1.125-6.35zm8.269 0q0 1.654.595 3.109t1.654 2.58q1.124 1.058 2.513 1.72 1.455.595 3.175.595 1.654 0 3.109-.596 1.455-.661 2.514-1.72 1.124-1.124 1.72-2.58.66-1.454.66-3.108 0-1.654-.66-3.109-.596-1.521-1.72-2.58-1.059-1.124-2.514-1.72-1.455-.66-3.109-.66-1.72 0-3.175.66-1.389.596-2.513 1.72-1.059 1.059-1.654 2.58-.595 1.455-.595 3.109zm28.31-28.31q4.366-.86 7.474-.463 3.175.396 5.226 1.653 2.05 1.257 3.043 3.307.992 1.985.992 4.432v6.946q0 3.704 1.654 5.49 1.72 1.786 6.482 1.786v8.665q-4.3-.066-6.218 1.124-1.918 1.19-1.918 4.366v6.945q0 2.712-.794 4.961-.727 2.315-2.646 3.77-1.918 1.522-5.16 2.117-3.174.595-8.135-.066v-8.731q2.447.661 3.969.463 1.587-.133 2.513-.794.926-.662 1.257-1.654.397-.992.397-1.984v-6.482q0-1.72.397-2.977.397-1.323 1.19-2.249.794-.926 1.919-1.654 1.19-.727 2.646-1.322-1.522-.596-2.712-1.191-1.125-.662-1.919-1.588-.727-.926-1.124-2.249-.397-1.322-.397-3.373v-6.548q0-.993-.33-1.985-.332-1.058-1.258-1.72-.926-.727-2.513-.86-1.588-.198-4.035.596z" style="font-family:BunyaW03-Bold;-inkscape-font-specification:BunyaW03-Bold" transform="rotate(-40 5.337 -92.527)" aria-label="{a}"/></g><g style="font-size:66.1458px;line-height:1.25;opacity:1;stroke-width:.264583"><path d="M265.414 208.044q-2.514-.794-4.101-.595-1.522.132-2.448.86-.926.661-1.257 1.72-.33.992-.33 1.984v6.548q0 2.05-.397 3.374-.397 1.323-1.19 2.249-.728.926-1.92 1.587-1.124.595-2.645 1.19 1.455.596 2.58 1.324 1.19.727 1.984 1.653t1.19 2.25q.398 1.256.398 2.976v6.482q0 .992.33 1.984.397.993 1.323 1.654.926.662 2.448.794 1.587.198 4.035-.463v8.731q-4.961.662-8.202.066-3.175-.595-5.094-2.116-1.918-1.456-2.712-3.77-.727-2.25-.727-4.962v-6.945q0-3.175-1.919-4.366-1.918-1.19-6.217-1.124v-8.665q4.762 0 6.416-1.786 1.72-1.786 1.72-5.49v-6.946q0-2.447.992-4.431.992-2.05 3.043-3.308 2.05-1.256 5.159-1.653 3.175-.397 7.54.463zm3.042 19.579q0-3.44 1.125-6.416 1.124-2.977 3.043-5.16 1.984-2.248 4.63-3.505 2.646-1.323 5.688-1.323 2.977 0 5.49 1.257 2.514 1.257 4.366 3.373v-4.498h8.268v32.412h-8.268v-4.498q-1.852 2.183-4.366 3.44-2.513 1.19-5.49 1.19-3.042 0-5.688-1.257-2.646-1.323-4.63-3.505-1.919-2.183-3.043-5.16-1.125-2.976-1.125-6.35zm8.269 0q0 1.654.595 3.109t1.654 2.58q1.124 1.058 2.513 1.72 1.455.595 3.175.595 1.654 0 3.109-.596 1.455-.661 2.513-1.72 1.125-1.124 1.72-2.579.662-1.455.662-3.109 0-1.653-.662-3.109-.595-1.521-1.72-2.58-1.058-1.124-2.513-1.72-1.455-.66-3.109-.66-1.72 0-3.175.66-1.389.596-2.513 1.72-1.059 1.059-1.654 2.58-.595 1.456-.595 3.11zm28.31-28.31q4.366-.86 7.474-.463 3.175.397 5.226 1.653 2.05 1.257 3.043 3.308.992 1.984.992 4.431v6.946q0 3.704 1.654 5.49 1.72 1.786 6.482 1.786v8.665q-4.3-.066-6.218 1.124-1.918 1.191-1.918 4.366v6.945q0 2.712-.794 4.961-.728 2.315-2.646 3.77-1.918 1.522-5.16 2.117-3.174.596-8.135-.066v-8.731q2.447.661 3.969.463 1.587-.133 2.513-.794.926-.661 1.257-1.654.397-.992.397-1.984v-6.482q0-1.72.397-2.977.397-1.323 1.19-2.249.794-.926 1.919-1.653 1.19-.728 2.645-1.323-1.52-.596-2.712-1.191-1.124-.661-1.918-1.587-.727-.927-1.124-2.25-.397-1.322-.397-3.373v-6.548q0-.992-.33-1.985-.332-1.058-1.258-1.72-.926-.727-2.513-.86-1.588-.198-4.035.596z" style="font-family:BunyaW03-Bold;-inkscape-font-specification:BunyaW03-Bold" transform="rotate(-40 5.337 -92.527)" aria-label="{a}"/></g></g><g style="font-size:66.1458px;line-height:1.25;opacity:1;fill:#eee;stroke-width:.264583"><path d="M64.03 87.107q-2.514-.794-4.102-.595-1.521.132-2.447.86-.926.661-1.257 1.72-.33.992-.33 1.984v6.548q0 2.05-.398 3.374-.397 1.323-1.19 2.249-.728.926-1.918 1.587-1.125.595-2.646 1.19 1.455.596 2.58 1.324 1.19.727 1.984 1.653.793.926 1.19 2.25.397 1.256.397 2.976v6.482q0 .992.331 1.985.397.992 1.323 1.653.926.662 2.447.794 1.588.198 4.035-.463v8.731q-4.96.662-8.202.066-3.175-.595-5.093-2.116-1.918-1.456-2.712-3.77-.728-2.25-.728-4.962v-6.945q0-3.175-1.918-4.365-1.918-1.191-6.218-1.125v-8.665q4.763 0 6.416-1.786 1.72-1.786 1.72-5.49v-6.945q0-2.448.992-4.432.993-2.05 3.043-3.308 2.05-1.256 5.16-1.653 3.175-.397 7.54.463zm3.042 19.579q0-3.44 1.124-6.416 1.125-2.976 3.043-5.16 1.984-2.248 4.63-3.505 2.646-1.323 5.689-1.323 2.976 0 5.49 1.257 2.513 1.257 4.366 3.373v-4.498h8.268v32.412h-8.268v-4.498q-1.853 2.183-4.366 3.44-2.514 1.19-5.49 1.19-3.043 0-5.689-1.257-2.646-1.323-4.63-3.505-1.918-2.183-3.043-5.16-1.124-2.976-1.124-6.35zm8.268 0q0 1.654.595 3.11.596 1.454 1.654 2.579 1.125 1.058 2.514 1.72 1.455.595 3.175.595 1.653 0 3.108-.595 1.456-.662 2.514-1.72 1.125-1.125 1.72-2.58.661-1.455.661-3.109 0-1.653-.661-3.109-.595-1.52-1.72-2.58-1.058-1.124-2.514-1.72-1.455-.66-3.108-.66-1.72 0-3.175.66-1.39.596-2.514 1.72-1.058 1.06-1.654 2.58-.595 1.456-.595 3.11zm28.31-28.31q4.366-.86 7.475-.463 3.175.397 5.226 1.653 2.05 1.257 3.042 3.308.992 1.984.992 4.432v6.945q0 3.704 1.654 5.49 1.72 1.786 6.482 1.786v8.665q-4.3-.066-6.217 1.124-1.919 1.191-1.919 4.366v6.945q0 2.712-.793 4.961-.728 2.315-2.646 3.77-1.918 1.522-5.16 2.117-3.175.596-8.135-.066v-8.731q2.447.661 3.968.463 1.588-.132 2.514-.794.926-.661 1.257-1.653.396-.993.396-1.985v-6.482q0-1.72.397-2.977.397-1.323 1.191-2.249.794-.926 1.918-1.653 1.19-.728 2.646-1.323-1.521-.596-2.712-1.19-1.124-.662-1.918-1.588-.728-.926-1.125-2.25-.397-1.322-.397-3.373v-6.548q0-.992-.33-1.985-.331-1.058-1.257-1.72-.926-.727-2.514-.86-1.587-.198-4.034.596z" style="font-family:BunyaW03-Bold;-inkscape-font-specification:BunyaW03-Bold" aria-label="{a}"/></g><g aria-label="reimagining software development." style="font-size:46.3021px;line-height:1.2;opacity:1;stroke-width:.264583"><path d="M180.39 40.496v3.89q.926-1.62 2.546-2.778 1.62-1.204 3.797-1.204v3.936q-1.204 0-2.315.463t-1.991 1.25q-.88.74-1.435 1.76-.556 1.018-.602 2.175v13.196h-3.89V40.496Zm29.031 17.364q-1.898 2.824-4.491 4.12-2.547 1.297-5.556 1.297-2.362 0-4.445-.88-2.084-.926-3.612-2.454t-2.454-3.611q-.88-2.084-.88-4.445 0-2.408.88-4.492.926-2.083 2.454-3.611 1.528-1.574 3.612-2.454 2.083-.926 4.445-.926 3.01 0 5.648 1.389 2.686 1.389 4.63 4.306l-13.427 12.502q.74.509 1.852.74 1.111.186 2.223.047 1.944-.232 3.611-1.297 1.713-1.111 2.87-2.778zm-17.734-6.575q-.139 1.76.463 3.241.602 1.482 1.714 2.315l10.603-10.325q-.88-1.065-2.362-1.713-1.481-.695-3.24-.602-1.436.092-2.686.648-1.25.555-2.223 1.528-.926.926-1.528 2.176t-.74 2.732zm24.679-10.789v22.688h-3.889V40.496Zm-4.445-6.76q0-1.065.741-1.76.741-.74 1.713-.74 1.065 0 1.76.74.74.695.74 1.76 0 .973-.74 1.714-.695.74-1.76.74-.972 0-1.713-.74-.74-.741-.74-1.714zm24.309 29.448h-3.89V48.321q0-1.157-.555-2.083-.556-.926-1.435-1.482-.88-.555-1.945-.602-1.019-.092-1.991.417-1.019.463-1.713 1.482-.695.972-.787 2.87v14.261h-3.936V40.496h3.936v2.825q.972-1.39 2.361-2.13 1.39-.787 3.102-.787 2.177 0 3.704 1.065 1.528 1.065 2.316 2.778.88-1.806 2.407-2.825 1.575-1.018 3.704-1.018 1.575 0 2.871.648 1.343.602 2.269 1.713.926 1.065 1.435 2.5.51 1.436.51 3.056v14.863h-3.89V48.321q0-1.203-.555-2.13-.556-.925-1.436-1.435-.88-.555-1.944-.602-1.019-.092-1.991.417-1.112.463-1.852 1.574-.695 1.112-.695 3.149zM251 51.887q0-2.408.834-4.492.833-2.083 2.222-3.611 1.436-1.574 3.334-2.454 1.945-.926 4.167-.926 2.64 0 4.816 1.296 2.176 1.25 3.565 3.38v-4.584h3.936v22.688h-3.936v-4.537q-1.39 2.13-3.565 3.38-2.176 1.25-4.816 1.25-2.222 0-4.167-.88-1.898-.926-3.334-2.454-1.389-1.528-2.222-3.611-.834-2.084-.834-4.445zm3.936 0q0 1.528.556 2.917.602 1.343 1.574 2.361 1.019 1.019 2.361 1.62 1.39.556 2.964.556 1.528 0 2.87-.555 1.39-.602 2.408-1.62 1.019-1.02 1.62-2.362.603-1.39.603-2.917 0-1.528-.602-2.917-.602-1.39-1.62-2.408-1.02-1.019-2.409-1.62-1.342-.602-2.87-.602-1.575 0-2.964.601-1.342.602-2.361 1.621-.972 1.019-1.574 2.408-.556 1.389-.556 2.917zm32.828 11.39q-2.407 0-4.491-.88-2.037-.926-3.565-2.454t-2.408-3.611q-.88-2.084-.88-4.445 0-2.408.88-4.492.88-2.083 2.408-3.611 1.528-1.574 3.611-2.454 2.084-.926 4.492-.926h11.297v3.565l-5.51-.093q2.64 1.02 4.121 3.149 1.482 2.13 1.574 4.723.047 1.62-.463 3.241-.463 1.62-1.435 3.056-.972 1.389-2.361 2.454-1.39 1.065-3.103 1.574.927.324 1.621 1.019.695.694 1.158 1.574.463.88.602 1.899.185 1.018.046 1.99-.232 1.204-.88 2.27-.602 1.064-1.574 1.805-.973.787-2.269 1.204-1.296.463-2.824.463-1.575 0-3.01-.463-1.39-.417-2.454-1.343-1.065-.88-1.713-2.315-.602-1.389-.602-3.334h3.936q0 .787.324 1.436.324.694.833 1.157.556.51 1.25.787.695.278 1.436.278 1.574 0 2.639-1.111 1.111-1.065 1.111-2.547 0-1.481-1.065-2.546-1.065-1.019-2.732-1.019zm7.501-11.39q0-1.528-.602-2.917-.602-1.39-1.62-2.408-.973-1.019-2.362-1.62-1.342-.602-2.87-.602t-2.917.601q-1.343.602-2.362 1.621-1.018 1.019-1.62 2.408-.556 1.389-.556 2.917 0 1.528.556 2.917.602 1.343 1.62 2.361 1.019 1.019 2.362 1.62 1.389.556 2.917.556 1.528 0 2.87-.602 1.39-.601 2.362-1.574 1.018-1.018 1.62-2.361.602-1.39.602-2.917zm11.252-11.391v22.688h-3.89V40.496Zm-4.445-6.76q0-1.065.74-1.76.741-.74 1.714-.74 1.065 0 1.76.74.74.695.74 1.76 0 .973-.74 1.714-.695.74-1.76.74-.973 0-1.714-.74-.74-.741-.74-1.714zm26.67 29.448V51.887q0-1.528-.602-2.917-.556-1.39-1.575-2.408-1.018-1.065-2.407-1.667-1.343-.602-2.871-.602t-2.87.602q-1.343.556-2.362 1.574-1.019 1.019-1.62 2.454-.603 1.436-.649 3.149v11.112h-3.89V40.496h3.89v4.77q1.39-2.362 3.612-3.612 2.222-1.25 4.908-1.25 2.176 0 4.028.833 1.898.834 3.287 2.315 1.39 1.436 2.177 3.473.833 1.991.833 4.399v11.76Zm11.483-22.688v22.688h-3.89V40.496Zm-4.445-6.76q0-1.065.74-1.76.741-.74 1.714-.74 1.065 0 1.76.74.74.695.74 1.76 0 .973-.74 1.714-.695.74-1.76.74-.973 0-1.714-.74-.74-.741-.74-1.714zm26.67 29.448V51.887q0-1.528-.602-2.917-.556-1.39-1.575-2.408-1.018-1.065-2.407-1.667-1.343-.602-2.871-.602t-2.87.602q-1.344.556-2.362 1.574-1.019 1.019-1.62 2.454-.603 1.436-.649 3.149v11.112h-3.89V40.496h3.89v4.77q1.39-2.362 3.612-3.612 2.222-1.25 4.908-1.25 2.176 0 4.028.833 1.898.834 3.287 2.315 1.39 1.436 2.177 3.473.833 1.991.833 4.399v11.76Zm17.826.093q-2.408 0-4.491-.88-2.038-.926-3.566-2.454t-2.407-3.611q-.88-2.084-.88-4.445 0-2.408.88-4.492.88-2.083 2.407-3.611 1.528-1.574 3.612-2.454 2.084-.926 4.491-.926h11.298v3.565l-5.51-.093q2.64 1.02 4.12 3.149 1.483 2.13 1.575 4.723.046 1.62-.463 3.241-.463 1.62-1.435 3.056-.973 1.389-2.362 2.454-1.389 1.065-3.102 1.574.926.324 1.62 1.019.695.694 1.158 1.574.463.88.602 1.899.185 1.018.046 1.99-.231 1.204-.88 2.27-.601 1.064-1.574 1.805-.972.787-2.268 1.204-1.297.463-2.825.463-1.574 0-3.01-.463-1.388-.417-2.453-1.343-1.065-.88-1.714-2.315-.602-1.389-.602-3.334h3.936q0 .787.324 1.436.324.694.834 1.157.555.51 1.25.787.694.278 1.435.278 1.574 0 2.64-1.111 1.11-1.065 1.11-2.547 0-1.481-1.064-2.546-1.065-1.019-2.732-1.019zm7.5-11.39q0-1.528-.601-2.917-.602-1.39-1.62-2.408-.973-1.019-2.362-1.62-1.343-.602-2.87-.602-1.529 0-2.918.601-1.343.602-2.361 1.621-1.019 1.019-1.62 2.408-.556 1.389-.556 2.917 0 1.528.555 2.917.602 1.343 1.62 2.361 1.02 1.019 2.362 1.62 1.39.556 2.917.556 1.528 0 2.871-.602 1.389-.601 2.361-1.574 1.019-1.018 1.62-2.361.603-1.39.603-2.917zM185.668 104.5q0-1.436-.88-2.409-.88-1.018-2.13-1.018-1.203 0-2.083 1.018-.88.973-.88 2.316 0 1.25 1.065 2.083 1.065.787 3.334 1.436 2.593.74 3.843 2.13 1.296 1.342 1.296 4.028 0 1.389-.509 2.593-.51 1.203-1.435 2.13-.88.88-2.084 1.435-1.204.51-2.64.51-1.388 0-2.592-.464-1.204-.51-2.13-1.343-.88-.88-1.435-2.083-.51-1.204-.51-2.64h3.89q0 1.39.88 2.316.926.926 2.13.926 1.203 0 2.083-.88.88-.926.88-2.315 0-.88-.37-1.435-.325-.556-.927-.927-.555-.37-1.389-.648-.787-.278-1.76-.555-2.314-.649-3.889-2.084-1.528-1.482-1.528-4.075 0-1.435.463-2.639.51-1.204 1.39-2.083.926-.926 2.13-1.436 1.203-.509 2.685-.509 3.01 0 4.815 1.806 1.852 1.76 1.852 4.815zm24.911 4.86q0-1.527-.602-2.916-.556-1.39-1.575-2.408-1.018-1.019-2.407-1.62-1.343-.602-2.871-.602t-2.917.602q-1.343.601-2.361 1.62-1.02 1.019-1.621 2.408-.556 1.389-.556 2.917 0 1.528.556 2.917.602 1.343 1.62 2.361 1.02 1.019 2.362 1.62 1.39.557 2.917.557 1.528 0 2.87-.556 1.39-.602 2.408-1.62 1.02-1.02 1.575-2.362.602-1.39.602-2.917zm3.935 0q0 2.362-.926 4.446-.88 2.083-2.407 3.611-1.528 1.528-3.612 2.454-2.084.88-4.445.88-2.408 0-4.491-.88-2.084-.926-3.612-2.454t-2.408-3.611q-.88-2.084-.88-4.445 0-2.408.88-4.491.88-2.084 2.408-3.612 1.528-1.574 3.612-2.454 2.083-.926 4.491-.926 2.361 0 4.445.926 2.084.88 3.612 2.454 1.528 1.528 2.407 3.612.926 2.083.926 4.49zm10.65-16.39q-1.62-.093-2.64.926-.972 1.019-.972 2.547v1.435h5.186V90.84h3.936v7.038h3.658v3.241h-3.658v12.548q0 1.62 1.018 2.64 1.02.972 2.64.972v3.472q-3.75 0-5.695-1.806-1.899-1.805-1.899-5.278v-12.548h-5.186v19.54h-3.89v-19.54h-2.222v-3.241h2.223v-1.482q0-1.481.417-2.732.463-1.25 1.342-2.083.926-.88 2.315-1.297 1.436-.416 3.427-.231z" style="font-family:BunyaW03-Regular;-inkscape-font-specification:BunyaW03-Regular;fill:#eee"/><path d="m248.13 97.97 1.342 3.705 1.482-3.704h4.167l-3.611 9.121 3.24 8.797 7.41-17.918h4.166l-9.028 22.78h-4.168l-3.472-9.075-3.566 9.075h-4.167l-8.658-22.78h4.213l6.621 17.224 3.52-8.89-3.15-8.334zm18.382 11.39q0-2.407.833-4.49.834-2.084 2.223-3.612 1.435-1.574 3.333-2.454 1.945-.926 4.168-.926 2.639 0 4.815 1.296 2.176 1.25 3.565 3.38v-4.583h3.936v22.688h-3.936v-4.538q-1.389 2.13-3.565 3.38t-4.815 1.25q-2.223 0-4.168-.88-1.898-.926-3.333-2.454-1.39-1.528-2.223-3.611-.833-2.084-.833-4.445zm3.935 0q0 1.529.556 2.918.602 1.343 1.574 2.361 1.019 1.019 2.362 1.62 1.389.557 2.963.557 1.528 0 2.87-.556 1.39-.602 2.408-1.62 1.02-1.02 1.621-2.362.602-1.39.602-2.917 0-1.528-.602-2.917-.602-1.39-1.62-2.408-1.02-1.019-2.408-1.62-1.343-.602-2.871-.602-1.574 0-2.963.602-1.343.601-2.362 1.62-.972 1.019-1.574 2.408-.556 1.389-.556 2.917zm26.439-11.39v3.89q.926-1.62 2.546-2.778 1.621-1.204 3.797-1.204v3.936q-1.204 0-2.315.463t-1.99 1.25q-.88.74-1.436 1.76-.556 1.018-.602 2.175v13.197h-3.89V97.97Zm29.031 17.364q-1.898 2.824-4.491 4.12-2.547 1.297-5.556 1.297-2.362 0-4.445-.88-2.084-.926-3.612-2.454t-2.454-3.611q-.88-2.084-.88-4.445 0-2.408.88-4.491.926-2.084 2.454-3.612 1.528-1.574 3.612-2.454 2.083-.926 4.445-.926 3.01 0 5.649 1.389 2.685 1.39 4.63 4.306l-13.428 12.502q.741.509 1.852.74 1.111.186 2.223.047 1.944-.232 3.611-1.297 1.713-1.11 2.871-2.778zm-17.733-6.575q-.14 1.76.463 3.241.601 1.482 1.713 2.315l10.603-10.325q-.88-1.065-2.361-1.713-1.482-.695-3.242-.602-1.435.092-2.685.648t-2.223 1.528q-.926.926-1.528 2.176t-.74 2.732zm-132.749 58.076q0-2.408.834-4.491.833-2.084 2.222-3.612 1.436-1.574 3.334-2.454 1.945-.926 4.167-.926 2.64 0 4.77 1.25 2.13 1.25 3.518 3.334v-11.622h3.936v29.819h-3.936v-4.445q-1.389 2.083-3.519 3.333-2.13 1.204-4.769 1.204-2.222 0-4.167-.88-1.898-.925-3.334-2.453-1.389-1.528-2.222-3.612-.834-2.084-.834-4.445zm3.936 0q0 1.528.556 2.917.602 1.343 1.574 2.361 1.019 1.02 2.361 1.621 1.39.556 2.964.556 1.528 0 2.87-.556 1.39-.602 2.408-1.62 1.019-1.02 1.574-2.362.602-1.389.602-2.917v-.278q-.092-1.481-.694-2.778-.602-1.343-1.62-2.315-.973-1.019-2.316-1.574-1.296-.602-2.824-.602-1.575 0-2.964.602-1.342.602-2.361 1.62-.972 1.019-1.574 2.408-.556 1.389-.556 2.917zm42.783 5.973q-1.898 2.824-4.491 4.12-2.547 1.297-5.556 1.297-2.362 0-4.445-.88-2.084-.925-3.612-2.453-1.528-1.528-2.454-3.612-.88-2.084-.88-4.445 0-2.408.88-4.491.926-2.084 2.454-3.612 1.528-1.574 3.612-2.454 2.083-.926 4.445-.926 3.01 0 5.649 1.39 2.685 1.388 4.63 4.305l-13.428 12.502q.741.51 1.852.74 1.111.186 2.223.047 1.944-.232 3.611-1.297 1.713-1.11 2.871-2.778zm-17.733-6.575q-.14 1.76.463 3.241.602 1.482 1.713 2.315l10.603-10.325q-.88-1.065-2.361-1.713-1.482-.695-3.242-.602-1.435.092-2.685.648t-2.223 1.528q-.926.926-1.528 2.176t-.74 2.732zm22.132-10.788 6.621 17.224 6.853-17.224h4.167l-9.029 22.78h-4.167l-8.659-22.78zm39.31 17.363q-1.898 2.824-4.49 4.12-2.547 1.297-5.557 1.297-2.362 0-4.445-.88-2.084-.925-3.612-2.453-1.528-1.528-2.454-3.612-.88-2.084-.88-4.445 0-2.408.88-4.491.926-2.084 2.454-3.612 1.528-1.574 3.612-2.454 2.083-.926 4.445-.926 3.01 0 5.649 1.39 2.685 1.388 4.63 4.305l-13.428 12.502q.741.51 1.852.74 1.112.186 2.223.047 1.945-.232 3.611-1.297 1.714-1.11 2.871-2.778zm-17.733-6.575q-.14 1.76.463 3.241.602 1.482 1.713 2.315l10.603-10.325q-.88-1.065-2.361-1.713-1.482-.695-3.241-.602-1.436.092-2.686.648t-2.222 1.528q-.927.926-1.528 2.176-.602 1.25-.741 2.732zm24.679-17.919v29.819h-3.89v-29.819zm21.901 18.521q0-1.528-.602-2.917-.556-1.39-1.575-2.408-1.018-1.018-2.407-1.62-1.343-.602-2.871-.602t-2.917.602q-1.343.602-2.361 1.62-1.02 1.019-1.621 2.408-.556 1.389-.556 2.917 0 1.528.556 2.917.602 1.343 1.62 2.361 1.02 1.02 2.362 1.621 1.389.556 2.917.556 1.528 0 2.87-.556 1.39-.602 2.408-1.62 1.02-1.02 1.575-2.362.602-1.389.602-2.917zm3.935 0q0 2.361-.926 4.445-.88 2.084-2.407 3.612-1.528 1.528-3.612 2.454-2.084.88-4.445.88-2.408 0-4.491-.88-2.084-.926-3.612-2.454t-2.408-3.612q-.88-2.084-.88-4.445 0-2.408.88-4.491.88-2.084 2.408-3.612 1.528-1.574 3.612-2.454 2.083-.926 4.491-.926 2.361 0 4.445.926 2.084.88 3.612 2.454 1.528 1.528 2.407 3.612.926 2.083.926 4.491zm25.05 0q0 2.361-.834 4.445-.833 2.084-2.268 3.612-1.39 1.528-3.334 2.454-1.899.88-4.121.88-2.64 0-4.816-1.205-2.13-1.25-3.472-3.333v11.251h-3.89v-29.494h3.89v4.491q1.343-2.084 3.472-3.334 2.177-1.25 4.816-1.25 2.222 0 4.12.926 1.945.88 3.335 2.454 1.435 1.528 2.268 3.612.834 2.083.834 4.491zm-3.89 0q0-1.528-.602-2.917-.555-1.39-1.574-2.408-1.018-1.018-2.408-1.62-1.342-.602-2.87-.602t-2.871.602q-1.343.555-2.361 1.574-1.019.972-1.62 2.315-.603 1.297-.65 2.778v.278q0 1.528.556 2.917.602 1.343 1.621 2.361 1.019 1.02 2.361 1.621 1.39.556 2.964.556 1.528 0 2.87-.556 1.39-.602 2.408-1.62 1.019-1.02 1.574-2.362.602-1.389.602-2.917zm22.966 11.298h-3.89V163.27q0-1.158-.555-2.084-.555-.926-1.435-1.482-.88-.555-1.945-.601-1.018-.093-1.99.416-1.02.463-1.714 1.482-.694.972-.787 2.87v14.262h-3.936v-22.688h3.936v2.824q.972-1.389 2.361-2.13 1.39-.787 3.103-.787 2.176 0 3.704 1.065t2.315 2.778q.88-1.806 2.408-2.824 1.574-1.019 3.704-1.019 1.574 0 2.87.648 1.343.602 2.27 1.713.925 1.065 1.435 2.5.509 1.436.509 3.057v14.863h-3.89V163.27q0-1.204-.555-2.13-.556-.926-1.435-1.436-.88-.555-1.945-.601-1.019-.093-1.991.416-1.111.463-1.852 1.575-.695 1.11-.695 3.148zm36.162-5.325q-1.898 2.824-4.491 4.12-2.547 1.297-5.556 1.297-2.362 0-4.445-.88-2.084-.925-3.612-2.453-1.528-1.528-2.454-3.612-.88-2.084-.88-4.445 0-2.408.88-4.491.926-2.084 2.454-3.612 1.528-1.574 3.612-2.454 2.083-.926 4.445-.926 3.01 0 5.649 1.39 2.685 1.388 4.63 4.305l-13.428 12.502q.741.51 1.852.74 1.111.186 2.223.047 1.944-.232 3.611-1.297 1.713-1.11 2.871-2.778zm-17.733-6.575q-.14 1.76.463 3.241.601 1.482 1.713 2.315l10.603-10.325q-.88-1.065-2.361-1.713-1.482-.695-3.242-.602-1.435.092-2.685.648t-2.223 1.528q-.926.926-1.528 2.176t-.74 2.732zm38.754 11.9v-11.298q0-1.528-.602-2.917-.555-1.39-1.574-2.408-1.018-1.065-2.408-1.667-1.342-.602-2.87-.602t-2.871.602q-1.343.556-2.361 1.575-1.019 1.018-1.621 2.454-.602 1.435-.648 3.148v11.113h-3.89v-22.688H385v4.769q1.389-2.362 3.611-3.612 2.223-1.25 4.908-1.25 2.177 0 4.029.834 1.898.833 3.287 2.315 1.39 1.435 2.176 3.472.834 1.991.834 4.399v11.76zm5.464-22.781h2.13v-7.038h3.936v7.038h4.12v3.241h-4.12v12.548q0 1.62 1.018 2.64 1.019.972 2.64.972v3.472q-3.751 0-5.696-1.805-1.898-1.806-1.898-5.279v-12.548h-2.13zm10.094 20.327q0-1.019.74-1.713.742-.741 1.714-.741 1.065 0 1.76.74.74.695.74 1.714 0 1.018-.74 1.76-.695.694-1.76.694-.972 0-1.713-.695-.741-.74-.741-1.76z" style="font-family:BunyaW03-Regular;-inkscape-font-specification:BunyaW03-Regular;fill:#eee"/></g></svg>